<svg xmlns="http://www.w3.org/2000/svg" xmlns:xlink="http://www.w3.org/1999/xlink" version="1.1" x="0px" y="0px" viewBox="0 0 98 98" style="enable-background:new 0 0 98 98;" xml:space="preserve"><path d="M35.047,75.288v-11.35c0-0.441-0.357-0.798-0.798-0.798H16.802c-0.441,0-0.798,0.357-0.798,0.798v11.35l-3.562,5.071  c-0.171,0.244-0.192,0.562-0.055,0.826c0.137,0.264,0.41,0.43,0.708,0.43h24.861c0.298,0,0.571-0.166,0.708-0.43  c0.137-0.264,0.116-0.583-0.055-0.826L35.047,75.288z M33.451,64.736v10.006H17.6V64.736H33.451z M14.63,80.02l2.372-3.377h17.046  l2.372,3.377H14.63z M27.719,79.117c0,0.441-0.357,0.798-0.798,0.798H24.13c-0.441,0-0.798-0.357-0.798-0.798  s0.357-0.798,0.798-0.798h2.791C27.362,78.319,27.719,78.676,27.719,79.117z M35.893,27.539h11.236  c0.26,0.823,0.91,1.474,1.732,1.734v12.013h1.595V29.273c1.075-0.339,1.856-1.346,1.856-2.532c0-1.463-1.191-2.654-2.654-2.654  c-1.186,0-2.192,0.782-2.531,1.856H35.893c-0.441,0-0.798,0.357-0.798,0.798S35.453,27.539,35.893,27.539z M49.659,25.683  c0.584,0,1.059,0.475,1.059,1.059S50.243,27.8,49.659,27.8c-0.584,0-1.058-0.475-1.059-1.058c0,0,0,0,0-0.001s0,0,0-0.001  C48.601,26.158,49.076,25.683,49.659,25.683z M61.601,74.212h-9.372c-0.229-0.837-0.904-1.506-1.772-1.764V62.068  c5.036-0.396,9.074-4.391,9.535-9.408h11.165c0.385,0.991,1.349,1.695,2.475,1.695c1.464,0,2.654-1.191,2.654-2.654  c0-1.186-0.782-2.192-1.857-2.531v-9.993c0-0.441-0.357-0.798-0.798-0.798c-0.441,0-0.798,0.357-0.798,0.798v9.995  c-0.876,0.277-1.557,0.995-1.779,1.893H60.017c-0.33-5.441-4.859-9.766-10.381-9.766s-10.051,4.326-10.381,9.766h-10.99  c-0.286-1.157-1.333-2.018-2.577-2.018c-1.464,0-2.654,1.191-2.654,2.654c0,1.125,0.705,2.086,1.695,2.472v6.921  c0,0.441,0.357,0.798,0.798,0.798s0.798-0.357,0.798-0.798v-6.817c0.843-0.208,1.528-0.819,1.839-1.617h11.116  c0.463,5.033,4.525,9.038,9.583,9.412v10.376c-1.075,0.32-1.857,1.27-1.857,2.389c0,1.381,1.191,2.504,2.654,2.504  c1.102,0,2.049-0.638,2.45-1.542c0.029,0.003,0.058,0.009,0.089,0.009h9.403c0.441,0,0.798-0.357,0.798-0.798  S62.042,74.212,61.601,74.212z M73.632,50.642c0.584,0,1.059,0.475,1.059,1.059c0,0.584-0.475,1.059-1.059,1.059  c-0.584,0-1.059-0.475-1.059-1.059C72.573,51.117,73.048,50.642,73.632,50.642z M25.687,52.76c-0.584,0-1.059-0.475-1.059-1.059  c0-0.584,0.475-1.059,1.059-1.059c0.584,0,1.059,0.475,1.059,1.059C26.746,52.285,26.271,52.76,25.687,52.76z M40.828,51.701  c0-4.856,3.951-8.807,8.807-8.807s8.807,3.951,8.807,8.807s-3.951,8.807-8.807,8.807S40.828,56.557,40.828,51.701z M49.659,75.745  c-0.584,0-1.059-0.408-1.059-0.909s0.475-0.909,1.059-0.909c0.584,0,1.059,0.408,1.059,0.909S50.243,75.745,49.659,75.745z   M18.95,41.107h13.151c0.441,0,0.798-0.357,0.798-0.798V17.182c0-0.441-0.357-0.798-0.798-0.798H18.95  c-0.441,0-0.798,0.357-0.798,0.798v23.128C18.152,40.75,18.51,41.107,18.95,41.107z M31.303,34.977H19.748V21.381h11.555V34.977z   M19.748,39.512v-2.939h11.555v2.939H19.748z M31.303,17.98v1.806H19.748V17.98H31.303z M23.936,18.882  c0-0.22,0.179-0.399,0.399-0.399h2.381c0.22,0,0.399,0.179,0.399,0.399s-0.179,0.399-0.399,0.399h-2.381  C24.115,19.281,23.936,19.103,23.936,18.882z M24.599,37.233h1.854v1.595h-1.854V37.233z M82.113,57.329H65.15  c-0.441,0-0.798,0.357-0.798,0.798v22.691c0,0.441,0.357,0.798,0.798,0.798h16.963c0.441,0,0.798-0.357,0.798-0.798V58.127  C82.911,57.686,82.554,57.329,82.113,57.329z M65.948,62.378h15.367v12.695H65.948V62.378z M81.315,58.924v1.858H65.948v-1.858  H81.315z M65.948,80.02v-3.352h15.367v3.352H65.948z M71.697,59.912c0-0.22,0.179-0.399,0.399-0.399h3.071  c0.22,0,0.399,0.179,0.399,0.399s-0.179,0.399-0.399,0.399h-3.071C71.876,60.311,71.697,60.132,71.697,59.912z M72.587,77.763h2.089  v1.595h-2.089V77.763z M54.742,55.655v-4.862c0-1.15-0.701-2.14-1.698-2.565v-0.176H53.04c0-0.034,0.002-0.068-0.003-0.102  c-0.221-1.705-1.683-2.99-3.402-2.99c-1.719,0-3.181,1.286-3.402,2.99c-0.004,0.035-0.003,0.068-0.003,0.102h-0.004v0.176  c-0.997,0.425-1.698,1.414-1.698,2.565v4.862c0,1.536,1.25,2.787,2.787,2.787h4.641C53.492,58.442,54.742,57.192,54.742,55.655z   M49.635,46.555c0.869,0,1.615,0.615,1.794,1.452h-3.588C48.021,47.17,48.766,46.555,49.635,46.555z M46.124,55.655v-4.862  c0-0.657,0.534-1.191,1.191-1.191h4.641c0.657,0,1.191,0.534,1.191,1.191v4.862c0,0.657-0.534,1.191-1.191,1.191h-4.641  C46.658,56.847,46.124,56.312,46.124,55.655z M49.635,50.771c-1.009,0-1.829,0.82-1.829,1.829c0,0.722,0.422,1.346,1.031,1.643  v1.008c0,0.441,0.357,0.798,0.798,0.798s0.798-0.357,0.798-0.798v-1.008c0.609-0.297,1.031-0.921,1.031-1.643  C51.464,51.592,50.644,50.771,49.635,50.771z M49.635,52.367c0.127,0,0.233,0.107,0.233,0.233c0,0.127-0.107,0.234-0.233,0.234  s-0.234-0.107-0.234-0.234C49.402,52.474,49.509,52.367,49.635,52.367z M85.703,17.589C85.703,17.589,85.703,17.588,85.703,17.589  v-0.014c0-0.025-0.005-0.048-0.007-0.073c-0.002-0.025-0.002-0.05-0.006-0.075c0-0.002-0.001-0.004-0.002-0.006  c-0.007-0.034-0.018-0.066-0.029-0.098c-0.006-0.018-0.01-0.037-0.017-0.055c-0.011-0.027-0.026-0.051-0.04-0.076  c-0.011-0.021-0.021-0.043-0.034-0.062c-0.013-0.019-0.029-0.035-0.043-0.053c-0.018-0.022-0.034-0.046-0.054-0.066  c-0.017-0.017-0.038-0.031-0.056-0.047c-0.02-0.017-0.039-0.035-0.061-0.05c-0.021-0.015-0.045-0.025-0.068-0.037  c-0.022-0.012-0.043-0.026-0.067-0.036c-0.019-0.008-0.039-0.012-0.059-0.019c-0.03-0.01-0.059-0.021-0.09-0.028  c-0.016-0.003-0.033-0.003-0.05-0.006c-0.036-0.005-0.072-0.011-0.109-0.011c-0.002,0-0.004-0.001-0.006-0.001  c-0.025,0-0.049,0.005-0.073,0.007c-0.025,0.002-0.049,0.002-0.074,0.006c-0.004,0.001-0.009,0.002-0.013,0.002c0,0,0,0,0,0  c-3.344,0.627-7.209,0.959-11.18,0.959c-3.92,0-7.745-0.324-11.061-0.937c-0.026-0.005-0.051-0.004-0.077-0.006  c-0.023-0.002-0.045-0.007-0.068-0.007c-0.002,0-0.004,0.001-0.006,0.001c-0.04,0-0.079,0.006-0.118,0.012  c-0.013,0.002-0.027,0.002-0.04,0.005c-0.038,0.008-0.075,0.021-0.111,0.035c-0.012,0.005-0.026,0.007-0.038,0.012  c-0.035,0.015-0.067,0.034-0.1,0.054c-0.011,0.007-0.024,0.012-0.035,0.02c-0.031,0.021-0.06,0.047-0.088,0.073  c-0.01,0.009-0.021,0.016-0.03,0.025c-0.024,0.024-0.044,0.052-0.065,0.079c-0.011,0.014-0.023,0.026-0.033,0.041  c-0.014,0.022-0.025,0.046-0.037,0.069c-0.012,0.023-0.026,0.045-0.036,0.07c-0.008,0.019-0.012,0.039-0.018,0.058  c-0.01,0.031-0.021,0.062-0.028,0.095c0,0.002-0.002,0.004-0.002,0.007c-0.004,0.024-0.004,0.047-0.006,0.071  c-0.002,0.025-0.007,0.049-0.007,0.074v14.793c0,0.011,0.003,0.021,0.003,0.032c-0.003,0.062-0.002,0.126,0.01,0.19  c0.072,0.383,0.407,0.65,0.783,0.65c0.049,0,0.099-0.005,0.148-0.014c3.103-0.583,6.658-0.911,10.328-0.956v2.181h-4.176  c-0.441,0-0.798,0.357-0.798,0.798c0,0.441,0.357,0.798,0.798,0.798h9.947c0.441,0,0.798-0.357,0.798-0.798  c0-0.441-0.357-0.798-0.798-0.798h-4.176v-2.183c3.664,0.038,7.221,0.358,10.33,0.933c0.025,0.005,0.049,0.004,0.074,0.006  c0.024,0.002,0.047,0.007,0.071,0.007c0.002,0,0.005-0.001,0.007-0.001c0.035,0,0.068-0.006,0.102-0.01  c0.019-0.003,0.038-0.003,0.056-0.007c0.029-0.006,0.056-0.017,0.084-0.026c0.022-0.007,0.045-0.012,0.066-0.021  c0.022-0.009,0.041-0.023,0.062-0.034c0.024-0.013,0.05-0.025,0.072-0.04c0.019-0.013,0.036-0.029,0.053-0.044  c0.021-0.018,0.044-0.034,0.064-0.053c0.017-0.017,0.03-0.037,0.046-0.055c0.017-0.021,0.036-0.041,0.051-0.064  c0.011-0.017,0.02-0.037,0.03-0.055c0.015-0.027,0.032-0.054,0.044-0.083c0.007-0.016,0.01-0.034,0.016-0.051  c0.011-0.033,0.023-0.067,0.03-0.102c0-0.002,0.001-0.004,0.002-0.006c0.004-0.023,0.003-0.045,0.006-0.067  c0.003-0.026,0.008-0.051,0.008-0.078V17.589z M84.107,18.526v12.968c-3.182-0.524-6.756-0.8-10.408-0.8c-0.022,0-0.043,0-0.065,0  c-0.001,0-0.002,0-0.003,0c-0.001,0-0.002,0-0.003,0c-3.681,0.004-7.277,0.287-10.473,0.822V18.548  c3.182,0.524,6.757,0.8,10.408,0.8C77.27,19.348,80.891,19.064,84.107,18.526z M63.758,30.396c-0.02-0.219,0.142-0.413,0.361-0.433  l0.75-0.068c0.22-0.019,0.413,0.142,0.433,0.361c0.02,0.219-0.142,0.413-0.361,0.433l-0.75,0.068  c-0.012,0.001-0.024,0.002-0.037,0.002C63.951,30.759,63.777,30.603,63.758,30.396z"/></svg>