<?xml version="1.0" encoding="utf-8"?>
<!-- Generator: Adobe Illustrator 26.3.1, SVG Export Plug-In . SVG Version: 6.00 Build 0)  -->
<svg version="1.1" id="Livello_1" xmlns="http://www.w3.org/2000/svg" xmlns:xlink="http://www.w3.org/1999/xlink" x="0px" y="0px"
	 viewBox="0 0 841.89 310.9" style="enable-background:new 0 0 841.89 310.9;" xml:space="preserve">
<style type="text/css">
	.st0{fill:#006FFF;}
</style>
<g>
	<path class="st0" d="M765.52,60.34c29.22,0.42,53.61,11.51,73.17,33.23c0.87,0.96,1.71,1.98,2.38,3.08
		c0.95,1.55,0.76,3.05-0.46,4.39c-0.58,0.64-1.29,1.16-1.97,1.69c-10.8,8.52-21.6,17.03-32.4,25.54c-0.11,0.09-0.23,0.17-0.35,0.26
		c-3.26,2.46-4.21,2.44-6.99-0.4c-4.08-4.17-8.68-7.62-13.84-10.36c-26.32-13.96-57.02,2.33-62.8,29.49
		c-5.86,27.53,13.1,47.44,31.59,52.1c10.17,2.56,20.08,1.82,29.61-2.77c5.67-2.72,10.72-6.3,15.09-10.82
		c0.5-0.52,0.95-1.1,1.48-1.59c1.32-1.21,2.88-1.46,4.38-0.6c0.87,0.5,1.66,1.17,2.45,1.79c10.55,8.36,21.09,16.73,31.63,25.11
		c4.3,3.42,4.42,4.59,0.8,8.74c-15.09,17.31-33.85,28.49-56.47,32.41c-49.92,8.65-99.72-20.7-111.87-73.73
		c-10.45-45.57,13.35-90.91,55.34-109.27C738.81,63.15,751.83,60.27,765.52,60.34z"/>
	<path class="st0" d="M442.36,118.15c0,13.76-0.02,27.51,0.01,41.27c0.03,11.38-1.49,22.52-5.45,33.23
		c-5.47,14.79-13.87,27.62-25.83,38.02c-8.43,7.34-18.21,12.26-28.63,16c-11.82,4.25-24.07,6.2-36.61,6.37
		c-4.02,0.06-5.13-0.98-5.15-5.13c-0.05-12.89-0.02-25.77-0.01-38.66c0-0.72,0.02-1.46,0.17-2.16c0.38-1.7,1.36-2.84,3.2-3.07
		c0.86-0.1,1.72-0.23,2.58-0.34c10.48-1.3,19.21-6.09,26.65-13.4c9.56-9.37,14.89-20.84,16.76-34.01c0.53-3.74,0.64-7.49,0.64-11.26
		c-0.02-24.91-0.01-49.81-0.01-74.72c0-1.16-0.05-2.32,0.03-3.47c0.16-2.4,1.15-3.42,3.46-3.6c0.86-0.07,1.74-0.03,2.61-0.03
		c13.18,0,26.35,0,39.53,0c1.01,0,2.03-0.04,3.04,0.07c1.67,0.19,2.67,1.11,2.87,2.75c0.16,1.29,0.13,2.6,0.13,3.9
		C442.36,86.01,442.36,102.08,442.36,118.15z"/>
	<path class="st0" d="M609.68,155.21c0-28.22,0-56.44,0-84.67c0-1.3-0.05-2.61,0.05-3.91c0.17-2.15,1.12-3.15,3.2-3.41
		c1-0.12,2.02-0.11,3.03-0.11c13.03-0.01,26.05-0.01,39.08,0c1.01,0,2.03-0.02,3.03,0.09c2.07,0.23,3.16,1.19,3.46,3.24
		c0.21,1.42,0.18,2.88,0.18,4.33c0.01,27.5,0.01,55,0.01,82.5c0,28.95,0,57.89-0.01,86.84c0,1.44,0.03,2.91-0.18,4.33
		c-0.3,2.02-1.46,3.03-3.48,3.23c-1,0.1-2.02,0.06-3.04,0.06c-12.88,0-25.76-0.07-38.64,0.03c-5.92,0.05-6.75-0.67-6.73-6.59
		C609.72,212.52,609.68,183.86,609.68,155.21z"/>
	<path class="st0" d="M308.1,125.62c-5.99-31.18-20.36-58.03-43-80.23C239.9,20.67,209.63,6.1,174.6,1.42
		c-16.51-2.21-32.94-1.88-49.26,1.28c-30.86,5.98-57.5,20.13-79.53,42.54C15.55,76.03,0.84,113.37,0,157.1
		c0.12,2.15,0.31,5.04,0.43,7.93c0.53,12.66,2.87,25,6.77,37.03c9.96,30.77,27.83,56.1,53.26,75.99
		c25.72,20.11,54.97,31.11,87.62,32.67c15.42,0.74,30.67-0.9,45.59-4.87c45.83-12.18,79.58-39.44,100.97-81.75
		c9.18-18.15,14.05-37.56,15.63-57.86C311.33,152.57,310.68,139.03,308.1,125.62z M270.19,223.35
		c-10.8,18.06-24.6,33.23-42.46,44.54c-13.85,8.77-28.92,14.54-44.93,17.88c-4.53,0.95-9.1,1.69-13.68,2.36
		c-1.99,0.29-4.04,0.27-6.06,0.22c-0.94-0.02-1.53-0.76-1.63-1.73c-0.15-1.47,0.23-2.86,0.56-4.28
		c4.27-18.61,8.48-37.23,12.76-55.84c4.21-18.33,8.45-36.65,12.75-54.96c0.69-2.95,1.61-5.86,2.6-8.73
		c1.51-4.41,3.57-8.58,6.56-12.17c2.18-2.63,2.91-5.55,2.83-8.86c-0.1-4.49-0.08-8.98-0.07-13.47c0.01-3.62,0.21-7.23,1.1-10.77
		c0.82-3.26,2.03-6.35,3.93-9.12c1.3-1.9,2.37-2.09,4.43-0.99c0.89,0.47,1.75,1.02,2.66,1.45c1.08,0.51,2.23,0.54,3.39,0.2
		c1.68-0.5,2.41-1.55,2.17-3.24c-0.08-0.57-0.21-1.15-0.43-1.67c-0.64-1.51-0.67-3.11-0.79-4.69c-0.36-4.9,1.29-8.87,5.76-11.25
		c4.47-2.38,5.3-6.55,5.74-10.97c0.1-1.04-0.27-2-0.89-2.85c-0.8-1.1-2.21-1.61-3.45-1.09c-1.05,0.45-2.1,1.01-3,1.71
		c-4.44,3.48-9.16,6.6-13.13,10.67c-2.44,2.51-3.8,2.48-6.91,0.63c-1.24-0.74-2.48-1.5-3.78-2.1c-1.78-0.83-2.61-2.19-2.67-4.1
		c-0.06-1.89,0.05-3.75,0.42-5.62c0.92-4.71,2.56-9.19,4.26-13.65c0.67-1.75,1.37-3.52,1.79-5.34c1.45-6.32-2.8-12.05-9.28-12.41
		c-2.44-0.14-4.92,0.13-7.36,0.35c-1.9,0.18-3.24,1.32-3.76,3.15c-0.63,2.22-1.1,4.49-1.59,6.75c-0.62,2.82-1.12,5.68-1.81,8.48
		c-0.31,1.24-0.89,2.44-1.47,3.59c-0.54,1.09-1.53,1.73-2.69,2.05c-2.01,0.57-3.97-0.53-4.24-2.57c-0.2-1.56-0.17-3.19-0.01-4.76
		c0.29-2.73,0.8-5.44,1.14-8.17c0.2-1.58,0.35-3.17,0.31-4.76c-0.05-1.98-1.15-3.38-3.02-3.71c-2.85-0.52-5.76-0.78-8.63-0.12
		c-3.48,0.8-6.01,3.88-6.44,7.88c-0.23,2.16-0.17,4.34-0.32,6.51c-0.15,2.31-0.34,4.62-0.61,6.92c-0.33,2.88-1.57,5.25-4.12,6.8
		c-3.77,2.29-5.06,5.79-4.79,9.99c0.11,1.73,0.42,3.45,0.57,5.18c0.24,2.67-0.72,3.99-3.38,4.68c-0.98,0.25-1.98,0.42-2.98,0.6
		c-1.48,0.26-2.68,1.03-3.76,2.03c-1.66,1.53-2.23,3.34-1.52,5.5c0.23,0.69,0.52,1.35,0.78,2.02c0.69,1.8,0.93,3.57,0.32,5.5
		c-0.85,2.67-0.32,5.3,1.51,7.34c3.38,3.76,2.63,7.11-0.06,10.9c-2.51,3.52-4.57,7.38-6.68,11.18c-2.26,4.08-3.71,8.46-4.27,13.13
		c-0.37,3.07-0.13,6.11,0.67,9.04c1.38,5.06,4.82,7.53,9.4,7.34c4.21-0.18,8.34-0.85,12.47-1.58c2.2-0.39,4-1.62,5.95-2.57
		c0.76-0.37,1.48,0.15,1.41,0.99c-0.22,2.49-1.15,4.77-2.11,7.03c-2.28,5.32-4.6,10.62-6.9,15.93
		c-7.54,17.39-15.09,34.78-23.18,51.92c-1.67,3.53-3.22,7.12-4.67,10.74c-1.86,4.66-4.63,8.66-8.19,12.15
		c-3.85,3.76-8.26,6.81-12.64,9.89c-1.87,1.32-3.77,1.44-5.7,0.37c-2.41-1.33-4.79-2.71-7.09-4.21
		c-18.63-12.11-32.86-28.22-43.22-47.81c-7.93-14.99-12.88-30.92-14.98-47.77c-0.68-5.48-0.76-10.97-0.93-15.02
		c-0.22-29.47,8.41-54.7,24.55-77.4c19.2-27,44.78-44.89,77.02-52.95c13.72-3.43,27.64-4.56,41.79-3.37
		c22.96,1.92,44.19,8.97,63.53,21.39c23.67,15.2,40.16,36.4,50.54,62.42c4.8,12.03,7.71,24.52,8.96,37.44
		C291.28,172.2,284.92,198.71,270.19,223.35z"/>
	<path class="st0" d="M600.4,117.37c-0.93-8.56-2.91-16.82-6.5-24.64c-2.74-5.98-6.42-11.32-11.27-15.81
		c-9.55-8.84-20.86-13.57-33.82-13.66c-29.54-0.2-59.08-0.12-88.62-0.14c-0.86,0-1.74,0.04-2.59,0.2c-1.43,0.27-2.34,1.19-2.49,2.64
		c-0.14,1.29-0.1,2.6-0.1,3.9c0,28.38,0,56.76,0,85.15c0,28.82,0,57.63,0,86.45c0,5.84,0.4,6.26,6.07,6.27
		c13.18,0.01,26.35,0.01,39.53,0c1.01,0,2.04,0.03,3.04-0.1c1.86-0.24,2.84-1.22,3.06-3.11c0.15-1.29,0.11-2.6,0.11-3.9
		c0.01-13.32,0-26.64,0.01-39.97c0-1.3,0.03-2.6,0.11-3.9c0.05-0.83,0.58-1.3,1.41-1.33c1.16-0.04,2.32-0.05,3.47-0.05
		c11.15,0,22.3-0.01,33.45,0.01c3.34,0.01,6.64-0.15,9.95-0.69c17.16-2.83,29.95-11.76,37.93-27.28c4.01-7.8,6.1-16.22,7.13-24.91
		C601.24,134.13,601.31,125.77,600.4,117.37z M547.23,138.74c-1.1,3.52-3.04,6.55-5.8,9.01c-3.01,2.7-6.5,4.32-10.59,4.35
		c-7.09,0.05-14.18,0.04-21.27,0.01c-2.18-0.01-2.56-0.41-2.71-2.46c-0.07-1.01-0.05-2.02-0.05-3.04c0-5.79,0-11.57,0-17.36
		c0-5.79-0.01-11.57,0-17.36c0-1.16,0.01-2.32,0.12-3.47c0.12-1.28,0.68-1.82,1.9-1.93c0.86-0.08,1.73-0.06,2.6-0.06
		c5.64,0,11.29,0.18,16.93-0.04c12.37-0.48,18.63,9.07,19.87,17.33C548.99,128.85,548.77,133.83,547.23,138.74z"/>
</g>
</svg>
