<svg id="b5a3e641-56d4-483d-bbfd-6c9b0e604688" data-name="Livello 1" xmlns="http://www.w3.org/2000/svg" viewBox="0 0 593.48 177.82"><defs><style>.f6ebf0dc-a8a1-4933-a254-7c266c494244{fill:#9ca3af;}.fd5f93e8-9dbb-4c21-93ee-612888d289a0{fill:#2a355a;}.e5645a06-532b-4bfa-9150-5759a02c7c11{fill:#dbeab5;}.a01f1cd3-b40d-47b2-95cb-9be71ceb433d{fill:#72ba38;}.f743e1ed-ad92-4862-87f8-06c30f505dbc{fill:#263c91;}.b29c7712-ea50-4f0f-a8df-414de1121ae7{fill:#5c99d2;}.ef11dd0b-621f-4abe-8bab-c5504d6aac39{fill:#007d48;}.ac1c8f07-0cc1-499d-a12c-ab5b98f5f129{fill:#84c040;}.a01a2898-8cca-40f4-8c62-32d6048b06a0{fill:#85c042;}.a64bf5a3-2491-413c-b796-2772d0bfb055{fill:#274496;}.b52d2685-0c06-4b66-b9e0-a83af0b77a06{fill:#8dc346;}.bf70d5af-c472-44a5-be30-2b3d85914311{fill:#3256a2;}.fc6ce407-1482-4c02-b0ee-28fb369470a6{fill:#29499a;}.bb63509d-497a-4bda-9f99-58a926014305{fill:#355ca7;}.e71b57cb-9935-4973-bbd0-6362d3cea4fd{fill:#7dbe3d;}.a9aa7644-4963-447c-8229-8d2bad22036e{fill:#4271b6;}.b1c09419-add8-4073-a9ed-429f63c52868{fill:#3e6cb2;}.afb87393-ea9c-4c1c-8795-8ecb002a5ca9{fill:#4475b9;}.fc794aed-bf6a-4392-8b27-ee86d93b6169{fill:#3c69b0;}.edbb36b7-f6c9-45c8-9aea-d783eaedebc3{fill:#7abc3b;}.fcc6216d-f309-4bc8-baad-5e669a55dde5{fill:#2f4f9e;}.fc4ca424-4cce-46ca-b353-138583173aa5{fill:#3861aa;}.f4478f1c-2960-4e93-90a9-c68ae8d58a9f{fill:#477abc;}.a9322a17-5e2d-4a0e-84a4-ac27b899f612{fill:#a2cb54;}.b3c99d2b-bb9c-46c1-a2ed-1f1c2469cbc3{fill:#3a64ac;}.e6f9e6df-0358-4704-a719-4a47ddb30245{fill:#008048;}.bea4a943-5528-4cd9-ac86-fbe69a140ac7{fill:#2e4f9e;}.b37d1a78-d855-4c50-b6f6-4be072ff60fc{fill:#c6db73;}.bc9eba88-fe84-4ec5-bb74-d410a9a0bb3d{fill:#78c3ed;}.b75e1220-787d-4d4f-9a2a-493a419bc1eb{fill:#355ba7;}.b035fb95-a449-4605-be10-9349842cbabc{fill:#a7cd59;}.b5f58894-4959-4060-b987-8de7c79418b6{fill:#76bb3a;}.a5933aef-13a6-48ad-8c44-9b79455febd1{fill:#8ac244;}.a3f5d970-b512-44c7-aa8c-ffe1847a82fd{fill:#2b4a9b;}.ae9ce0ea-3ccb-4f2b-857d-767e60d0e144{fill:#78bc3a;}.afc581c7-e707-429d-845e-26423b4527f5{fill:#afd15d;}.e6d1284f-5253-477d-9eca-fd1bf513238a{fill:#548fcb;}.ed1a3c1a-ec67-4baa-bdbc-98b3ddffa460{fill:#60a1d7;}.a3f136c6-d5df-465a-977a-bd973126dbc7{fill:#5c9ad2;}.eefeb410-2c42-4283-b354-02caeda4b767{fill:#64a8dc;}.e1ef1992-70f9-4582-880d-1ed42e268308{fill:#b5d463;}.e02ac1a4-9a33-431d-8984-491364f03ce4{fill:#bdd76a;}.b452bf41-313c-462d-9954-c399872e43c5{fill:#94c64a;}.a2e8daa7-93fe-40b3-8244-6023f2cd6a14{fill:#68addf;}.be4c0f7a-df31-4c2f-9d82-c3eef0566c26{fill:#6db5e3;}.b22ed7f4-c32c-497b-8eba-bc5f3970f1c2{fill:#b0d15e;}.b4b6f7ab-bb27-444e-bdb0-3d3d6f4c96d0{fill:#bfd86d;}.a7f49125-4810-4557-9e70-f8bdd97636f5{fill:#98c84d;}.a9c97839-d92e-4e59-a526-1c49123e7435{fill:#74bfea;}.b7f8fe0d-a390-4ef2-8849-1671e7c58fcd{fill:#a8ce59;}.b39132a4-8c1a-476c-8bf4-8f52eda96061{fill:#71bae7;}.e1a5e259-80d3-4bfb-9d32-fcdf692c1d0b{fill:#274194;}.a4837944-9175-4029-8203-6f1586ffde3a{fill:#c2d96f;}.e68206bf-aca1-4dd0-a9fa-742ce713074c{fill:#9bc94f;}.a966091d-af7e-4e44-8531-3c3ca44597bf{fill:#98c74d;}.adf1551b-80bb-4f7a-889d-905a7ec8ac80{fill:#b5d464;}.b495df9c-a4c4-46c5-9ac9-9f1b67bac918{fill:#bad667;}.f6f29c26-c742-44d1-b533-ed4ba9700487{fill:#0a8949;}.b57b71a2-ae88-49e8-9f84-6aa45754ebd5{fill:#2b375c;}.aded0099-4778-4555-964f-4118418972ea{fill:#9dc950;}.aaecd76e-30b1-4c6f-929e-ec33a206bb51{fill:#ddeedf;}.e02c3d33-691b-443c-bb04-594528ed8091{fill:#058747;}.b8a3c8ee-b8da-4cb7-b3af-7d20a90c58d2{fill:#1b9245;}.e35361af-aa45-4ad1-9e4d-94bc34e47507{fill:#0c8b46;}.bd931821-d02f-4d91-8860-9665197456a0{fill:#008148;}.ba9002e0-0cbf-49ec-a718-81c08e88e284{fill:#118e46;}.a332084b-1462-46b8-aff3-777ef66e0759{fill:#73bde9;}.f72cc49e-f40d-4d73-a570-286bc44e2cb5{fill:#148e4a;}.f94c5859-9b76-4ea3-9019-8ae21363b052{fill:#30975b;}.e0de5971-5a40-4125-906b-3bff4544145f{fill:#a7cd57;}.bc9ac7f6-26b8-40f5-bcdd-4ba89f8af7f7{fill:#19714e;}.bd5dfbc9-3e3e-4b0a-80d1-a4c2780f2abe{fill:#93c54a;}.a015c4fc-9381-4db9-b4a8-9bb3b1d6a479{fill:#157d49;}.b2af7ef1-5768-4e1b-b2d5-f1133b9e4213{fill:#518ac7;}.a6457c9d-705b-4d37-8bc6-94ae9b8692c5{fill:#18704e;}.f10210f5-00f0-4c4e-b452-44e7367ad2f2{fill:#007c48;}.bdeafb4c-168a-4086-9c6a-f86822f10ca7{fill:#497ebf;}.af070ca7-084b-4042-8f01-40b9f874b9d1{fill:#9ac84f;}.b81d7c14-1e17-4922-82f7-8e4f738818cb{fill:#6db5e4;}.a180598e-c99a-4d7c-9bb5-ff46a0a2c58e{fill:#69aee0;}.b8e7beda-9f5c-47b9-ac05-5ed9c4e01491{fill:#65a8dc;}.a84d98ab-bf39-4c8b-aca7-76e8b7bcd33a{fill:#1a6d48;}.a4d2a388-7670-453a-8642-5dbe002cecaf{fill:#7bc9f0;}.b27d2fd6-c66e-4ac2-b09a-dcc7e4e9a9ae{fill:#229444;}.a6539005-c49e-446d-9044-56ae2e508b1c{fill:#0b8b46;}.b51d40fc-fb16-4dee-a269-81852be90b17{fill:#9eca50;}.e38ff4f0-02c6-4545-83a9-61fd5bb7ce8e{fill:#4b82c2;}.ba200ada-b8c2-43f1-8058-327fd9775a00{fill:#4e86c5;}</style></defs><path class="f6ebf0dc-a8a1-4933-a254-7c266c494244" d="M593.48,117.55c-4.55-.06-9.1-.14-13.65-.15-1.19,0-2.08-.14-2.75-1.35-4.77-8.61-9.66-17.17-14.42-25.79-1.78-3.22-1.6-3.36,2-3.61,4.63-.32,8.51-2.13,11-6.18s1-8.09-3.63-9.56c-3.26-1.06-6.62-.78-10-.54-1.9.14-1.47,1.54-1.47,2.66,0,13.82-.06,27.63,0,41.44,0,2.35-.57,3.15-3,3a80.33,80.33,0,0,0-8.5,0c-1.32,0-1.8-.34-1.8-1.72q.06-26.64,0-53.28c0-1.1.21-1.8,1.45-1.92,9.77-1,19.55-2,29.25.31,8.07,1.89,12.38,6.51,13.14,13.55.73,6.73-3.5,14.49-9.85,17.61-1.75.86-2,1.4-.92,3.06,4.46,7.09,8.35,14.53,13,21.51Z"/><path class="fd5f93e8-9dbb-4c21-93ee-612888d289a0" d="M84.91,177.82c-2.61-1.48-5.65-.62-8.37-1.52-.81-.27-1.65-.42-2.48-.62-1.84-.58-3.24-1.52-3.26-3.72A4.58,4.58,0,0,1,74,167.44a24.85,24.85,0,0,1,9.8-1.72,212,212,0,0,0,31.44-2.31c3-.55,6-1,9-1.75a4.86,4.86,0,0,1,3.5,0c1.36,2.91.38,5.73-2.75,8-8.3,4.37-17.26,6.35-26.53,7.24-1.43.14-3.07-.43-4.25.93H92.65a14.68,14.68,0,0,0-6.19,0Z"/><path class="e5645a06-532b-4bfa-9150-5759a02c7c11" d="M86.46,177.82a7.25,7.25,0,0,1,6.19,0Z"/><path class="f6ebf0dc-a8a1-4933-a254-7c266c494244" d="M367.09,92.57a3.9,3.9,0,0,0,.38-2.65c0-9.18.09-18.36,0-27.54,0-2.11.63-2.61,2.6-2.51,3,.16,6,.11,9,0,1.38,0,1.74.41,1.73,1.74q-.06,27,0,54.07c0,1.38-.46,1.75-1.78,1.71-3.26-.07-6.54-.11-9.8,0a3.4,3.4,0,0,1-3.32-1.81c-6.56-10.06-13.18-20.07-19.82-30.14-.81.64-.41,1.46-.41,2.15,0,9.18-.07,18.36,0,27.54,0,1.83-.51,2.34-2.3,2.26-3.09-.15-6.19-.09-9.28,0-1.33,0-1.8-.39-1.79-1.76q0-27,0-54.06c0-1.42.56-1.83,1.83-1.67a4.34,4.34,0,0,0,.51,0c11.68,0,10-.53,16,8.35q7.5,11.07,15,22.18C366.08,91.12,366.55,91.79,367.09,92.57Z"/><path class="a01f1cd3-b40d-47b2-95cb-9be71ceb433d" d="M161.87,49.6c10.67,6.67,14.71,16.88,15.54,28.83-.84.41-1.11-.34-1.52-.65-7.38-5.75-16.09-8.29-25-10.17C138,64.92,125,64.14,112,63.47c-3.18-.16-6.34-.36-9.52-.54A51.44,51.44,0,0,0,70.62,52.85a63.77,63.77,0,0,0-7.68.87c-.9.13-1.82.64-2.72,0-1.25-2.78-.48-5.51.2-8.25a2,2,0,0,1,.65-.63c4.3-.95,8.69-.86,13.05-1.12a28.13,28.13,0,0,1,3.31,0c7.39.17,14.78-.19,22.17,0a60.39,60.39,0,0,0,8,.49c2.6-.07,5.14.63,7.74.55,3.29.21,6.55.66,9.82,1,3.54.19,7,1.1,10.47,1.56,5.23.87,10.42,2,15.68,2.72,3.09.42,6.12.66,9.12-.45A1.7,1.7,0,0,1,161.87,49.6Z"/><path class="f743e1ed-ad92-4862-87f8-06c30f505dbc" d="M17.34,129.23c-2.93-2.48-6.08-4.7-8.47-7.8A34.72,34.72,0,0,1,1.53,105c-.52-3.68.3-4.36,3.79-3.2,13.17,4.39,26.78,6.55,40.53,8,9.56,1,19.16,1.49,28.75,2.15a5.77,5.77,0,0,1,2.25,2,55.76,55.76,0,0,0,23.84,16.76,4.6,4.6,0,0,1,2,1.15c.56.64.6,1.21-.33,1.57a13.06,13.06,0,0,1-3.58.27,335,335,0,0,1-45.45-2.14c-5.54-.63-11-1.77-16.49-2.77-3.38-.62-6.77-1.12-10.17-1.59a10.62,10.62,0,0,0-8.49,2.06A.59.59,0,0,1,17.34,129.23Z"/><path class="f6ebf0dc-a8a1-4933-a254-7c266c494244" d="M435.9,101.33c0,4.37,0,8.75,0,13.12,0,1,0,1.83-1.35,2-8.78,1.37-17.57,2.3-26.36.13-11.78-2.9-18.59-10.76-19.65-22.8-.54-6-.31-12,2.15-17.69,4.86-11.16,14-15.93,25.68-16.72a54,54,0,0,1,15.35,1.45c1.46.32,2,.88,1.76,2.41-.38,2.19.19,5.06-1,6.44s-4.18.17-6.38.12a46.89,46.89,0,0,0-13,1.25,12.18,12.18,0,0,0-8.47,7.27,26.31,26.31,0,0,0-.9,19.08c2,6.24,6.83,8.69,12.92,9.29s6,.57,6-5.46c0-4.35,0-4.35-4.45-4.35-4.94,0-4.94,0-4.91-5,0-4.73.63-5.36,5.32-5.38,5.07,0,10.15.07,15.22,0,1.75,0,2.17.54,2.12,2.19C435.83,92.92,435.9,97.12,435.9,101.33Z"/><path class="f6ebf0dc-a8a1-4933-a254-7c266c494244" d="M246.08,59.22a50.08,50.08,0,0,1,11.27,1.47c1.27.3,1.74.73,1.53,2-.39,2.37-.75,4.74-1,7.13-.12,1.27-.66,1.25-1.69,1.06a54.47,54.47,0,0,0-13.61-.83,8.72,8.72,0,0,0-3.24.79A3.71,3.71,0,0,0,238.19,77a16.57,16.57,0,0,0,5.63,3.54c3.81,1.76,7.65,3.45,11.33,5.5,12.46,6.93,8.83,23.39-.27,28.59-6.54,3.73-13.58,4-20.77,3.21a48.5,48.5,0,0,1-8.54-1.9c-1.26-.37-1.79-.92-1.6-2.35.33-2.37.46-4.78.56-7.18.07-1.58.48-2,2.16-1.5a36.3,36.3,0,0,0,14.74,1.83,11.55,11.55,0,0,0,5.35-1.67c2.63-1.78,2.82-4.62.42-6.67a35.2,35.2,0,0,0-8-4.58A50.62,50.62,0,0,1,228.9,88a15.66,15.66,0,0,1,3.35-26.57C235.8,59.85,240,59.14,246.08,59.22Z"/><path class="b29c7712-ea50-4f0f-a8df-414de1121ae7" d="M60.8,45.31a1.29,1.29,0,0,1-.38.12C40,47.52,19.6,49.6,3.12,65.19,6.47,54.78,10.56,45.7,18.7,38.76,30.12,29,43.78,24.88,58.12,22.28A103.52,103.52,0,0,1,77,20.16c3.21-.4,3.46-.12,2.9,3-.72,3.94-1.52,7.88-.53,11.9-.21,1.26-1.28,1.16-2.15,1.3-1.75.27-3.52.46-5.27.7C66.8,37.84,63.44,41.09,60.8,45.31Z"/><path class="f6ebf0dc-a8a1-4933-a254-7c266c494244" d="M444.27,88.52c0-8.84,0-17.67,0-26.5,0-1.66.41-2.16,2.12-2.15q15.73.12,31.46,0c1.56,0,2.15.36,2.05,2a48.18,48.18,0,0,0,0,6.69c.13,1.82-.66,2.09-2.24,2.07-6-.08-12,0-18.05-.08-1.8,0-2.38.48-2.29,2.29.15,3,.13,6,0,9-.07,1.69.45,2.2,2.17,2.17,5.93-.1,11.86.07,17.79-.1,2.24-.06,2.81.67,2.61,2.74a28.17,28.17,0,0,0,0,5.66c.24,2.17-.69,2.52-2.61,2.49-5.85-.12-11.69,0-17.54-.09-1.75,0-2.11.55-2.09,2.17.09,6.17,0,12.35.07,18.52,0,1.6-.44,2.07-2,2-3.09-.11-6.19-.12-9.28,0-1.68.07-2.17-.42-2.15-2.14C444.32,106.36,444.27,97.44,444.27,88.52Z"/><path class="a01f1cd3-b40d-47b2-95cb-9be71ceb433d" d="M130.86,79.48A171.85,171.85,0,0,1,164.2,85.1a31.59,31.59,0,0,1,9.67,4.12c5.44,3.64,6.06,9.14,1.48,13.89A31.4,31.4,0,0,1,165.17,110a47.78,47.78,0,0,1-12.95,4c-1.34.19-1.52-.93-1.82-1.74a89.05,89.05,0,0,0-18.39-30C131.32,81.52,130.16,80.85,130.86,79.48Z"/><path class="a01f1cd3-b40d-47b2-95cb-9be71ceb433d" d="M117.38,20.32a171.06,171.06,0,0,0-51-1.27c-2.78.36-5.63.77-8.45.13-2-.46-4-.94-5-3.08.44-1.17,1.55-1.28,2.52-1.53a127.87,127.87,0,0,1,20.85-3.32q11.55-.93,23.14-1.08a15.09,15.09,0,0,0,6.23-1.49c2.83-1.35,3.2-2.82,1.45-5.48a2,2,0,0,1-.54-1.39c14.34,2.47,26.94,8.71,38.25,17.69A69.11,69.11,0,0,1,157,31.55a1.18,1.18,0,0,1-1.42,0c-3.58-2.19-7.64-3.2-11.5-4.68-2.31-.95-4.78-1.3-7.15-2a19.46,19.46,0,0,0-5-.83c-3.22-.69-6.5-1-9.71-1.76a3.21,3.21,0,0,1-.75-.21C120.28,21,118.43,21.63,117.38,20.32Z"/><path class="f743e1ed-ad92-4862-87f8-06c30f505dbc" d="M115.38,163.91c-3.08,1.07-6.34,1.19-9.52,1.48-8.1.74-16.22,1.21-24.37,1.16a22.81,22.81,0,0,0-6,1.11c-1.82.49-3.61,1.16-4,3.46s1,3.46,2.6,4.56a91.74,91.74,0,0,1-38.2-16.17,58.11,58.11,0,0,1-16.15-16.69c.92-.48,1.47.21,2,.71,3.72,3.52,8.36,5.27,13.11,6.82a5.69,5.69,0,0,1,1.06.34c.85.64,2.14.71,2.52,2,10.78,5.68,22.4,8.44,34.42,9.69a143.39,143.39,0,0,0,35.25-.52C110.69,161.87,113.34,161.84,115.38,163.91Z"/><path class="ef11dd0b-621f-4abe-8bab-c5504d6aac39" d="M106.6,1.81c1.48,1.19,3.05,2.4,2.51,4.62S106.74,9.25,105,9.87A20.4,20.4,0,0,1,98.67,11c-14.89.31-29.76.91-44.29,4.61A13,13,0,0,0,53,16.1L52.79,16c-1.07-.55-1-1.49-.8-2.44.61-3.42,2.24-6,5.72-7.18A14.7,14.7,0,0,0,60.25,5.2,69.46,69.46,0,0,1,81.51.4C89.9-.1,98.35-.55,106.6,1.81Z"/><path class="ac1c8f07-0cc1-499d-a12c-ab5b98f5f129" d="M145.32,128c4.36-1.26,8.7-2.61,12.94-4.24a38.21,38.21,0,0,0,14.14-9.16,17.91,17.91,0,0,1,1.73-1.52c.1-.08.31,0,.7,0-3.91,15.11-12.37,26.47-26.56,33.3-1.07-.18-1-1.08-1.06-1.79A110.81,110.81,0,0,0,145,130.16,2.17,2.17,0,0,1,145.32,128Z"/><path class="a01a2898-8cca-40f4-8c62-32d6048b06a0" d="M102.47,80.54a73.06,73.06,0,0,1,17-1.53c-.81,1.82-2.58.63-4,1.34,1.24,1.22,2.59,2.2,3.85,3.24a71.1,71.1,0,0,1,21.4,30.26,6,6,0,0,1,.59,2.73l-3,.8a1.28,1.28,0,0,1-1.06-.15c-1.73-1.53-4.14-2-5.76-3.71-4.59-11.39-12.27-20.26-22.26-27.26a57.64,57.64,0,0,0-5.42-3.44C103,82.36,101.83,81.93,102.47,80.54Z"/><path class="a64bf5a3-2491-413c-b796-2772d0bfb055" d="M103,133c-.53-1-1.56-1.24-2.53-1.59A57.28,57.28,0,0,1,80,118.47,29.24,29.24,0,0,1,74.6,112a50.47,50.47,0,0,1,8.24.44c4.45,4.3,9.06,8.33,14.77,11,13.29,6.19,26.73,6.93,40.47,1.66,1.28-.49,2.51-1.62,4.09-.83.67,1.31.47,2.75.64,4.13-.08.14-.15.28-.22.42-.92.92-2.17,1-3.33,1.2A166.35,166.35,0,0,1,113,133.3a63.8,63.8,0,0,1-7.18.47C104.85,133.7,103.78,133.84,103,133Z"/><path class="b52d2685-0c06-4b66-b9e0-a83af0b77a06" d="M102.47,80.54c0,1.07.87,1.36,1.62,1.78a63.8,63.8,0,0,1,27.17,28.8,4.31,4.31,0,0,1,.61,2.45,13.46,13.46,0,0,1-7.54-.58,5.3,5.3,0,0,1-1.27-1.89,53.68,53.68,0,0,0-21.42-21.86,19.15,19.15,0,0,1-4.45-3c-.22-1.71,1-3,1.3-4.59a1.58,1.58,0,0,1,.5-.56l.37-.11Z"/><path class="bf70d5af-c472-44a5-be30-2b3d85914311" d="M32.24,95.44A53.29,53.29,0,0,1,21.4,93.33c-1.36-1.61-1.79-3.66-2.53-5.54a136,136,0,0,1-5.7-18.3A3.4,3.4,0,0,1,13.11,67a30.78,30.78,0,0,1,8.77-3.15,3.31,3.31,0,0,1,1.26,2.44,128.67,128.67,0,0,0,8.2,24.37C32,92.12,33.34,93.59,32.24,95.44Z"/><path class="fc6ce407-1482-4c02-b0ee-28fb369470a6" d="M142.17,124.25a88.15,88.15,0,0,1-13.66,4.22c-10.75,2.14-20.84.19-30.64-4.2a41.1,41.1,0,0,1-13.69-9.76c-.56-.62-1.34-1.11-1.34-2.09l.56-.21a1.26,1.26,0,0,1,.79.05,28.35,28.35,0,0,0,12.9,5.2,3.18,3.18,0,0,1,1.83.85c5.48,3.6,11.65,4.87,18.06,5.2A44,44,0,0,0,137.84,120a2.91,2.91,0,0,1,2.23-.35A8.19,8.19,0,0,1,142.17,124.25Z"/><path class="bb63509d-497a-4bda-9f99-58a926014305" d="M32.24,95.44c-.22-2.52-1.61-4.63-2.57-6.87a127.66,127.66,0,0,1-7.79-24.72,31.59,31.59,0,0,1,7.27-1.93c1.53,3,1.85,6.39,2.77,9.59a135.93,135.93,0,0,0,8.21,21.08,16.67,16.67,0,0,1,1,2.11c.51,1.64,0,2.34-1.74,1.78A24.77,24.77,0,0,1,32.24,95.44Z"/><path class="e71b57cb-9935-4973-bbd0-6362d3cea4fd" d="M141.28,116.58c-1.09-2.49-2.16-5-3.28-7.46a67.47,67.47,0,0,0-19.18-25c-1.64-1.32-3.2-2.74-4.93-4.23,1.89-1,3.93.18,5.59-.88,3.15-.05,6.31-.32,9.44.37-.59.74-1.43.69-2.24.74a6.2,6.2,0,0,0-2.74.3,37.17,37.17,0,0,0,4.13,4.33,74.9,74.9,0,0,1,17,25.86,12.43,12.43,0,0,1,1.36,4.92A14.6,14.6,0,0,1,141.28,116.58Z"/><path class="a9aa7644-4963-447c-8229-8d2bad22036e" d="M72.51,96.86a21.81,21.81,0,0,1-6.19.59c-2.65-2.86-4.4-6.31-6.27-9.66-4.46-8-8.19-16.38-10.14-25.41a5.12,5.12,0,0,0-2.84-3.62,14.27,14.27,0,0,1,5.16-.49c3.55-.45,3.57-.45,4.39,2.84A93.07,93.07,0,0,0,71.57,93.23C72.34,94.28,73.51,95.32,72.51,96.86Z"/><path class="b1c09419-add8-4073-a9ed-429f63c52868" d="M47.07,58.76c1.93-.2,2.85.59,3.28,2.58,2.62,12.1,8,23,14.64,33.39a6.09,6.09,0,0,1,1.33,2.72l-1.4.06c-1.6.43-3.23.1-4.84.2-1.4-.37-1.47-1.79-2.09-2.76A102,102,0,0,1,44.38,62.6,9.31,9.31,0,0,0,43,59.31,9.45,9.45,0,0,1,47.07,58.76Z"/><path class="afb87393-ea9c-4c1c-8795-8ecb002a5ca9" d="M72.51,96.86c.08-1.52-1-2.45-1.76-3.57A92,92,0,0,1,56,61.38c-.53-2.22-1.26-3.62-3.81-3.11,2.78-.77,5.6-.42,8.41-.38,1.06,1.33,1.25,3,1.7,4.53a91.48,91.48,0,0,0,14.1,28.71,37.73,37.73,0,0,0,2.91,3.27,2.27,2.27,0,0,1,.55,1c-.07.41-.21.73-.73.52Z"/><path class="fc794aed-bf6a-4392-8b27-ee86d93b6169" d="M43,59.31c.95,0,1.45.28,1.69,1.41A99.16,99.16,0,0,0,58.87,95a3.58,3.58,0,0,1,.73,2.41c-1.89.57-3.83.13-5.75.26-1-.19-1.22-1.12-1.64-1.83A109,109,0,0,1,39,62.61c-.19-.89-.68-1.8,0-2.7A9.7,9.7,0,0,1,43,59.31Z"/><path class="edbb36b7-f6c9-45c8-9aea-d783eaedebc3" d="M60.22,53.68a48.34,48.34,0,0,1,32.66,3,50,50,0,0,1,8.25,4.59c.65.45,1.33.79,1.33,1.71L93.21,63a1,1,0,0,1-.84.16c-6.53-3.65-13.67-4.54-21-4.63-2.89,0-5.8.3-8.68-.24a1.39,1.39,0,0,1-.67-.57C61.34,56.4,60.34,55.24,60.22,53.68Z"/><path class="fcc6216d-f309-4bc8-baad-5e669a55dde5" d="M13.11,67c1.77,6.24,3.43,12.5,5.62,18.62.91,2.56,2.42,4.92,2.67,7.71a42.83,42.83,0,0,1-11-3C8.86,84.21,6.58,78.28,4.82,72.2A25.52,25.52,0,0,1,13.11,67Z"/><path class="fc4ca424-4cce-46ca-b353-138583173aa5" d="M39.35,96.48c2,0,1.51-.93.93-2.07a120.51,120.51,0,0,1-7.85-18.88c-1.39-4.45-3-8.89-3.28-13.61a15.09,15.09,0,0,1,5.14-1.12,4.07,4.07,0,0,1,1.07,2.55A122.1,122.1,0,0,0,46.9,93.86c.56,1.06,1.62,2.11.83,3.54C44.87,97.69,42.12,97,39.35,96.48Z"/><path class="f4478f1c-2960-4e93-90a9-c68ae8d58a9f" d="M79.24,94.89c-3.8-2.86-5.9-7-8.3-10.94A94.58,94.58,0,0,1,60.83,59.66a11.41,11.41,0,0,1-.19-1.77L62,57.71l.37.17c1.8,1.38,4.06,2.17,5.45,4.09a84.81,84.81,0,0,0,13,26A7.32,7.32,0,0,1,82,89.64,10.75,10.75,0,0,1,79.24,94.89Z"/><path class="a9322a17-5e2d-4a0e-84a4-ac27b899f612" d="M79.17,95.93l.56-.42c.9-1.07,2.16-1.09,3.41-1.14a52.39,52.39,0,0,1,21.07,11.46,41.22,41.22,0,0,1,4.22,4.84c.57.7.89,1.54-.19,2.17a28.85,28.85,0,0,1-7.82.1c-2.76-2-5.18-4.42-8.15-6.17a37.23,37.23,0,0,0-10.86-4.53,4.6,4.6,0,0,1-2.25-1.14C78.36,99.37,79.3,97.65,79.17,95.93Z"/><path class="b3c99d2b-bb9c-46c1-a2ed-1f1c2469cbc3" d="M47.73,97.4c-2.32-5-4.76-9.85-6.92-14.86A91.26,91.26,0,0,1,34.29,60.8,13.54,13.54,0,0,1,39,59.91,120.41,120.41,0,0,0,50.3,91.34c1.07,2,2.85,3.65,3.1,6.07a3.41,3.41,0,0,1-2.73.11Z"/><path class="e6f9e6df-0358-4704-a719-4a47ddb30245" d="M161.87,49.6c-4.11,2.44-8.49,1.5-12.78.86-4.56-.68-9.07-1.66-13.61-2.51-.73-.24-1.65-.52-1.46-1.45.51-2.57.11-5.44,2.24-7.55a2.91,2.91,0,0,1,1.65-.16c1.79.42,3.55,1,5.3,1.55,1.53.6,3.12,1,4.67,1.59,1.94.85,3.93,1.62,5.84,2.55a29.62,29.62,0,0,1,8.12,4.68A3.15,3.15,0,0,1,161.87,49.6Z"/><path class="bea4a943-5528-4cd9-ac86-fbe69a140ac7" d="M140.07,119.63c-8.55,4.47-17.62,5.37-27.09,4.19a41.17,41.17,0,0,1-12.67-3.74c-.75-.36-1.64-.6-2-1.52.93-.91,2.11-.68,3.24-.7,5.89.76,11.81.31,17.72.45a114.42,114.42,0,0,0,15-1.28,11.77,11.77,0,0,1,3.3,0l.71.39Z"/><path class="b37d1a78-d855-4c50-b6f6-4be072ff60fc" d="M80.79,157.68a63.88,63.88,0,0,1-13-.93c.51-1.22-.34-1.91-1.06-2.63a8.27,8.27,0,0,1-2.45-5c-.12-1-.23-2.09,1-2.67,3.69-.15,7.32.59,11,1,3.13.35,6.38-.37,9.39,1,1.29.9.93,2.07.47,3.19A10.79,10.79,0,0,1,80.79,157.68Z"/><path class="bc9eba88-fe84-4ec5-bb74-d410a9a0bb3d" d="M121.48,21.7l.62.11c5.33,2.68,7.67,9,6.51,12.71-.3,1-.48,2-1.52,2.54-2.15.48-4.21-.14-6.28-.56-.79-.67-.09-1,.34-1.34,2-1.7,2.29-3.61.94-5.78a5.72,5.72,0,0,0-5.93-2.68,5.88,5.88,0,0,0-4.62,4.59c-.27,1.22.16,2.61-.92,3.63a5,5,0,0,1-3.72.11,1.44,1.44,0,0,1-.6-.52c-1-3.82,1.54-9.85,5.92-11.93.8-.38,2.16-.33,2.14-1.78h2C118,21.21,120,20.4,121.48,21.7Z"/><path class="b75e1220-787d-4d4f-9a2a-493a419bc1eb" d="M60.25,5.2c-1,1-2.38,1.31-3.54,2A8.34,8.34,0,0,0,52.79,16a79.82,79.82,0,0,0-13.42,4.32C35,22,31,24.35,26.25,26.86a10.1,10.1,0,0,1,2.9-3.7A92.27,92.27,0,0,1,59.24,5.35,4.73,4.73,0,0,1,60.25,5.2Z"/><path class="b035fb95-a449-4605-be10-9349842cbabc" d="M79.16,101.1c7.35,1.14,13.56,4.63,19.25,9.25a6.54,6.54,0,0,1,1.47,2c-1.24,1.17-2.82.53-4.23.81-3,0-6,0-9,0a5.75,5.75,0,0,1-2.69-.72l-.6-.24A15.29,15.29,0,0,1,79.16,101.1Z"/><path class="b5f58894-4959-4060-b987-8de7c79418b6" d="M126.22,79.47l2.7-.09,1.94.1c.51,1.92,2.11,3.12,3.33,4.44A84,84,0,0,1,151,112.16a3,3,0,0,0,1.23,1.88,9.43,9.43,0,0,1-3.77,1.06c-1.41-1.09-1.49-2.84-2-4.32a79.49,79.49,0,0,0-18.48-28C127.05,81.91,125.51,81.22,126.22,79.47Z"/><path class="a5933aef-13a6-48ad-8c44-9b79455febd1" d="M145.32,128c1.59,6,2.08,12.22,3,18.36a18.79,18.79,0,0,1-7,3.19c-1.91.69-2.27-.56-2.35-2-.15-2.47.05-5-.6-7.41a1.9,1.9,0,0,1,.2-1.49c2.36-3,3.22-6.56,4.08-10.13l.19-.15Z"/><path class="a3f5d970-b512-44c7-aa8c-ffe1847a82fd" d="M4.82,72.2c1.34.68,1.37,2,1.74,3.24,1.27,4.16,2.67,8.28,4,12.43.25.8,1.1,1.73-.13,2.49a17.87,17.87,0,0,1-8.68-5.15c-2.43-2.61-2.24-7,.36-10.38A9,9,0,0,1,4.82,72.2Z"/><path class="ae9ce0ea-3ccb-4f2b-857d-767e60d0e144" d="M126.22,79.47c.77,2.34,2.94,3.48,4.46,5.17,8.07,8.91,14.43,18.8,17.77,30.46a3,3,0,0,1-2,.43c-1.75-3.31-2.71-6.94-4.39-10.3a80.53,80.53,0,0,0-17.15-22.78c-.78-.73-2.32-1.5-1.92-2.47C123.46,78.77,125.09,79.65,126.22,79.47Z"/><path class="afc581c7-e707-429d-845e-26423b4527f5" d="M38.4,152.65c-.77-.73-2.14-.43-2.69-1.53.67-2.76.23-5.6.61-8.37a7.34,7.34,0,0,1,.81-2.93,1.32,1.32,0,0,1,1.37-.51,42.11,42.11,0,0,1,7.25,2.54,1.1,1.1,0,0,1,.62,1.05,23.9,23.9,0,0,0-.3,8.09c.09.91.37,1.86-.4,2.64C43.18,153.77,40.91,152.29,38.4,152.65Z"/><path class="e6d1284f-5253-477d-9eca-fd1bf513238a" d="M92.52,62.73l.69.26c5.91,4.68,6.53,11.16,6.15,18h-.14c-1.6-.21-2.46-1.42-3.34-2.54a62.73,62.73,0,0,1-7.66-12.65c-.48-1-1.24-2.17.08-3.2C89.73,61.88,91.12,62.56,92.52,62.73Z"/><path class="ed1a3c1a-ec67-4baa-bdbc-98b3ddffa460" d="M79.32,35.18c-1.21-.15-1.09-1-1.13-1.91A32.2,32.2,0,0,1,79.25,23c.64-2.23.17-3.17-2.22-2.85,2.94-.82,5.93-.39,8.91-.39a2.11,2.11,0,0,1,.4,2.15,43.16,43.16,0,0,0-1.83,12,2.27,2.27,0,0,1-.43,1.19,3,3,0,0,1-2.16.69A3.37,3.37,0,0,1,79.32,35.18Z"/><path class="a3f136c6-d5df-465a-977a-bd973126dbc7" d="M161.84,49.16l-8.26-4.23c1.3-3.27.92-7,2.7-10.12.93-.8,1.53.08,2.23.46,1.82,1,2.83,2.88,4.53,4a11,11,0,0,1,.64,7.89A3,3,0,0,1,161.84,49.16Z"/><path class="eefeb410-2c42-4283-b354-02caeda4b767" d="M83.88,34.9a34.81,34.81,0,0,1,1.86-13.35,7.42,7.42,0,0,0,.2-1.78h5.68c.81,1,.21,1.95-.12,2.89a33.37,33.37,0,0,0-1.63,7c-.43,3.33,0,3.74,3.24,3.76.43,0,.85,0,1.28,0,1.64-.07,3.28-.06,4.93,0,1.22-.05,2.45-.05,3.68,0s2.53-.16,3.59.76c0,.13,0,.27,0,.41-2.21,1.57-4.71.66-7.08.83-1.42,0-2.84.07-4.26,0-2,.08-4.05,0-6.07.06C87.39,35.62,85.49,36.64,83.88,34.9Z"/><path class="e1ef1992-70f9-4582-880d-1ed42e268308" d="M45.67,153.63a39.56,39.56,0,0,1-.52-8.35c0-1.05,0-2.08,1.17-2.57a8.33,8.33,0,0,1,7.73,2.19c-1.58,2.38-.48,4.81-.16,7.23s-.09,2.81-2.59,2.53A17.41,17.41,0,0,1,45.67,153.63Z"/><path class="e02ac1a4-9a33-431d-8984-491364f03ce4" d="M51.3,154.66c1.88.16,2.41-.65,1.94-2.45a18.78,18.78,0,0,1-.87-5.23c0-1.15.26-2,1.6-2.16,2.63-.89,5-.09,7.26,1.19-1.34,2.45-.46,4.75.43,7.08.38,1,1.33,1.9.53,3.09A52,52,0,0,1,51.3,154.66Z"/><path class="b452bf41-313c-462d-9954-c399872e43c5" d="M138.49,139.65c2,2.35.93,5.14,1.12,7.75.08,1.2.09,2.22,1.68,2.13a42.37,42.37,0,0,1-9.89,3.15c-1.49-2.45-.63-5.09-.68-7.66.1-.49.21-1.07.64-1.32C133.73,142.33,135.74,140.34,138.49,139.65Z"/><path class="a2e8daa7-93fe-40b3-8244-6023f2cd6a14" d="M94.22,34.07l-.77,0c-4.68.07-5.3-.62-4.26-5.27.69-3,1.61-6,2.43-9.06h6.17a1,1,0,0,1,.1.74,37.79,37.79,0,0,0-3.27,12.92C94.61,33.67,94.38,33.87,94.22,34.07Z"/><path class="be4c0f7a-df31-4c2f-9d82-c3eef0566c26" d="M94.22,34.07a25,25,0,0,1,3.57-14.3h3.15c3.12.36,3.37.71,1.75,3.45A17.41,17.41,0,0,0,100,32.16,2.55,2.55,0,0,1,99.38,34Z"/><path class="b22ed7f4-c32c-497b-8eba-bc5f3970f1c2" d="M112.92,156.24a44.17,44.17,0,0,1-10.44,1c-.84-3.24.5-6.11,1.5-9a10.66,10.66,0,0,1,7.61-.63c1.38,1.4.73,3,.5,4.61S111.53,155.13,112.92,156.24Z"/><path class="b4b6f7ab-bb27-444e-bdb0-3d3d6f4c96d0" d="M80.79,157.68c1.42-2,3.62-3.34,4.5-5.78A6.81,6.81,0,0,0,86,149c2.24-1.3,4.58-.85,6.92-.39,1,.67,1,1.71.78,2.7a11.45,11.45,0,0,1-3.06,6.47Z"/><path class="a7f49125-4810-4557-9e70-f8bdd97636f5" d="M132.41,160.36a153.48,153.48,0,0,0,17.32-7.08,63.72,63.72,0,0,1-18,13.14c-1.1-.21-.95-1.1-.79-1.77C131.32,163.18,131.44,161.62,132.41,160.36Z"/><path class="a9c97839-d92e-4e59-a526-1c49123e7435" d="M106.59,34.13l-3.6-.07c-1-1.19-.74-2.57-.46-3.88a15.67,15.67,0,0,1,6.12-9.9c1.95-.26,3.8.45,5.71.52,1,.52,1.45.93,0,1.49C108.91,24.36,106.65,28.54,106.59,34.13Z"/><path class="b7f8fe0d-a390-4ef2-8849-1671e7c58fcd" d="M112.92,156.24c-1.4,0-2.4,0-1.86-2.13a15.87,15.87,0,0,0,.68-6.26c2-1.9,4.35-1.6,6.74-1.15,1.13,1.52.75,3.25.52,4.89a5.08,5.08,0,0,0,.65,3.63A21.34,21.34,0,0,1,112.92,156.24Z"/><path class="b39132a4-8c1a-476c-8bf4-8f52eda96061" d="M108.65,20.28c-.49,2.1-2.65,2.94-3.55,4.81-1.39,2.88-2.4,5.75-2.11,9H99.38c-.24-4,.32-7.77,2.74-11.09,1.23-1.69,1.17-2.84-1.18-3.18C103.54,19.5,106.08,20.21,108.65,20.28Z"/><path class="a9322a17-5e2d-4a0e-84a4-ac27b899f612" d="M119.65,155.22c-1.82.05-2-1.19-1.61-2.41.6-1.94.34-3.9.43-5.85a6.71,6.71,0,0,1,6.82-1.21c1.24,2.81.56,5.61-.06,8.4A15.46,15.46,0,0,1,119.65,155.22Z"/><path class="e1a5e259-80d3-4bfb-9d32-fcdf692c1d0b" d="M115.38,163.91l-7.31-2.09c4.39-1,8.76-2.12,13.18-3a6.16,6.16,0,0,1,6.51,2.59q.21.28-.12.42c-3.16.58-6.34,1.1-9.48,1.76A14.5,14.5,0,0,1,115.38,163.91Z"/><path class="a4837944-9175-4029-8203-6f1586ffde3a" d="M62.19,156.18c-.74-2.32-2-4.47-2.41-6.91-.23-1.33-.47-2.61,1.41-2.89a2.36,2.36,0,0,1,3.58.59c-.3,3.32,1.13,5.85,3.6,7.93,1.22,1,1.3,1.8-.61,1.85S64,156.94,62.19,156.18Z"/><path class="e68206bf-aca1-4dd0-a9fa-742ce713074c" d="M125.23,154.15c-1.38-1.32.22-2.66,0-4a27.86,27.86,0,0,1-.06-4.29c1.68-1.92,3.88-1.93,6.16-1.67,0,2.84,0,5.68.07,8.53A23.74,23.74,0,0,1,125.23,154.15Z"/><path class="a966091d-af7e-4e44-8531-3c3ca44597bf" d="M17.34,129.23a1.61,1.61,0,0,0,.44,0,9.62,9.62,0,0,1,6.09,3.9c-.43,2.6-.44,5.32-2.12,7.58-1.25.57-1.84-.47-2.59-1.08a20.81,20.81,0,0,0-2.32-2C16.51,134.81,15.19,131.92,17.34,129.23Z"/><path class="adf1551b-80bb-4f7a-889d-905a7ec8ac80" d="M104,148.52c.08,3-1.24,5.81-1.53,8.77-1.86.69-3.79.36-5.69.37a2,2,0,0,1-.21-2.14,28.7,28.7,0,0,0,1.32-7.17C100,147.43,102,147.22,104,148.52Z"/><path class="b495df9c-a4c4-46c5-9ac9-9f1b67bac918" d="M97.7,148.91c.9.11,1,.53.8,1.4-.64,2.43-1.15,4.9-1.71,7.35l-6.2.09c.89-2.9,2.88-5.48,2.58-8.74A3.71,3.71,0,0,1,97.7,148.91Z"/><path class="f6f29c26-c742-44d1-b533-ed4ba9700487" d="M163,39.26c-1.34.57-1.55-.85-2.26-1.34-1.43-1-2.75-2.17-4.11-3.26-2.41-.49-4.07-2.45-6.37-3.16a32.23,32.23,0,0,0-5.51-2.68,3,3,0,0,1-1.7-1.46c.1-.73.37-1.25,1.26-1A53.1,53.1,0,0,1,157,31.55,36.78,36.78,0,0,1,163,39.26Z"/><path class="b57b71a2-ae88-49e8-9f84-6aa45754ebd5" d="M16.84,137.65c2.2,0,2.85,2.34,4.56,3.08,2,.38,2.94,2.17,4.5,3.14a32.59,32.59,0,0,0,4.49,3.27c1.36,1.45,3.84,1.56,4.53,3.8-5.09-1.39-9.89-3.35-13.77-7.08a13.91,13.91,0,0,0-1.44-1A17,17,0,0,1,16.84,137.65Z"/><path class="aded0099-4778-4555-964f-4118418972ea" d="M127.64,161.86l.12-.42,4.65-1.08c.62,2.11-1.65,3.91-.66,6.06a15.54,15.54,0,0,1-6.77,3.23C126.65,167.32,128.36,165,127.64,161.86Z"/><path class="a9aa7644-4963-447c-8229-8d2bad22036e" d="M50.67,97.52l2.73-.11,6.2,0,5.32.06A51.53,51.53,0,0,1,50.67,97.52Z"/><path class="aaecd76e-30b1-4c6f-929e-ec33a206bb51" d="M121.48,21.7c-1.64-.69-3.52-.05-5.12-.91l1-.47C118.72,20.86,120.57,19.91,121.48,21.7Z"/><path class="f6ebf0dc-a8a1-4933-a254-7c266c494244" d="M539.24,81.17c-2.45-11-8.83-18.6-20-21.11-11-2.47-20.55.74-27.36,10-5.82,7.86-6.61,16.93-4.69,26.27,2.62,12.74,12.53,21.28,25,21.71a26.15,26.15,0,0,0,26.4-19.24,31.71,31.71,0,0,0,1.33-9.89A33.48,33.48,0,0,0,539.24,81.17Zm-17,20.36a9.71,9.71,0,0,1-9,5.79c-4.25,0-7.11-2.24-9.08-5.76-2.28-4.07-3.12-8.49-3.13-14.12a24.34,24.34,0,0,1,2.7-11.17c2-3.83,4.94-6.44,9.48-6.45s7.67,2.55,9.48,6.44A27.65,27.65,0,0,1,522.24,101.53Z"/><path class="e02c3d33-691b-443c-bb04-594528ed8091" d="M136.53,39.27c-1,2.81-2.74,5.54-1.05,8.68l-10.32-1.54c-1.61-.16-2.24-.92-1.66-2.54A37.82,37.82,0,0,0,125,38.45c.26-1.28,1.08-1.61,2.23-1.54,1.74-.73,3.38.08,5.06.29C133.67,38,135.75,37.28,136.53,39.27Z"/><path class="b8a3c8ee-b8da-4cb7-b3af-7d20a90c58d2" d="M95.23,34.59h4.13c.67.66.61,1.57.86,2.38a4,4,0,0,0,3.7,3.08c2,.17,3.73-.77,4.19-2.68.5-2.16,1.8-2.65,3.63-2.76a2,2,0,0,1,1.14.4c1.5,3.5-.51,5.86-2.68,8.16a8.81,8.81,0,0,1-2.55,1.72,35,35,0,0,1-7.78-.48c-3-1.47-4.42-4-5.05-7.17A2.78,2.78,0,0,1,95.23,34.59Z"/><path class="e02c3d33-691b-443c-bb04-594528ed8091" d="M79.32,35.18l2.49,0c.89,2.84,1.94,5.66,1.15,8.71-1.89.58-3.88-.13-5.78.42H74.06c-1-.72-1.09-1.83-1.3-2.91-.31-1.65-.3-3.39-1.39-4.8C73.92,35.61,76.74,36.08,79.32,35.18Z"/><path class="e35361af-aa45-4ad1-9e4d-94bc34e47507" d="M127.38,37.14c-.48.14-1.29.18-1.37.45q-1.2,3.73-2.16,7.55c-.26,1,1,.66,1.31,1.27l-9.78-1a1,1,0,0,1-.16-1.18c1.62-2.67,2.18-5.7,3.11-8.61a1.75,1.75,0,0,1,2.28.35l6.61.78.21.15Z"/><path class="bd931821-d02f-4d91-8860-9665197456a0" d="M71.37,36.64c1.15,0,1.6.45,1.71,1.67.17,2,.64,4,1,6l-13.26,1C61.83,41.09,66.57,37.21,71.37,36.64Z"/><path class="ba9002e0-0cbf-49ec-a718-81c08e88e284" d="M77.18,44.35c1.82-1,3.78-.2,5.66-.47,1.44-1.1,3.12-.61,4.7-.68,2.49-.12,2.52-.13,1.93-2.47-.51-2-1-4-.41-6l6.17-.12c-.25,4.12,2,7.08,4.64,9.81Z"/><path class="ba9002e0-0cbf-49ec-a718-81c08e88e284" d="M118.47,35.71c.28,3.65-1.66,6.59-3.09,9.69-2.61.31-5.14-.6-7.73-.52a23.47,23.47,0,0,1,2.1-2.24,8.14,8.14,0,0,0,3-7.5A4.46,4.46,0,0,1,118.47,35.71Z"/><path class="fd5f93e8-9dbb-4c21-93ee-612888d289a0" d="M97.7,148.91l-4.53.1L86,149l-21.18-2a7.46,7.46,0,0,0-3.58-.59A35,35,0,0,0,54,144.82a44.91,44.91,0,0,0-7.65-2.11l-8.88-3.13c-2.2.09-3.92-1.28-5.9-1.87-1.18-.6-2.36-1.21-3.57-1.76-1.49-1-3.51-1.22-4.48-3l-5.71-3.74c1.35-2.28,5.19-3.36,8.92-2.81,10.3,1.52,20.45,4,30.83,4.94,5.78.52,11.6.86,17.4,1.26,9.36.65,18.7.19,28.05.38a195,195,0,0,0,39.64-4.46c.5,4.4-1.63,7.83-4.13,11.12a33.7,33.7,0,0,1-7.16,4.5l-6.16,1.67a30.4,30.4,0,0,0-6.7,1.14,27.81,27.81,0,0,0-6.73.89,46.55,46.55,0,0,0-7.73.67C101.9,148.48,99.77,148.23,97.7,148.91Z"/><path class="f6ebf0dc-a8a1-4933-a254-7c266c494244" d="M316.39,94.15C313,85,309.62,75.85,306.18,66.71c-2.08-5.52-4-6.78-9.81-6.8-2.41,0-4.82.06-7.23,0a2,2,0,0,0-2.25,1.49Q277,88.52,266.94,115.61c-.53,1.43-.25,1.81,1.23,1.79,3.44-.06,6.88-.11,10.32,0a2.23,2.23,0,0,0,2.56-1.84c1.4-4.31,2.95-8.58,4.36-12.89a2.07,2.07,0,0,1,2.35-1.7c5.08.09,10.16.12,15.23,0,1.63,0,2.22.57,2.69,2,1.36,4.23,2.88,8.42,4.31,12.63.35,1,.63,1.82,2,1.79,4.21-.09,8.42,0,13,0C322.06,109.37,319.22,101.76,316.39,94.15Zm-26.62-4c1.87-5.4,3.68-10.62,5.75-16.61l5.62,16.61Z"/><path class="a332084b-1462-46b8-aff3-777ef66e0759" d="M127.38,37.14a2.78,2.78,0,0,1-.16-.4c2-4.73,1-8.79-2.69-12.31-.86-.82-1.62-1.75-2.43-2.62a49.53,49.53,0,0,1,9.68,1.52,3.25,3.25,0,0,1,.62.61c1.67,3.69,3,7.45,1.79,11.58-.28,1-.33,2.28-1.88,2.27Z"/><path class="f72cc49e-f40d-4d73-a570-286bc44e2cb5" d="M144.35,26.34l-1.09,1c-1.67.87-2.9-.6-4.37-.8-1.08-.46-2.29-.7-3-1.8.16-.75.59-.8,1.16-.42C139.54,24.82,142.07,25.13,144.35,26.34Z"/><path class="f94c5859-9b76-4ea3-9019-8ae21363b052" d="M137.06,24.33l-1,.45c-1.66.86-2.9-.08-4.14-1a1.91,1.91,0,0,1-.12-.47A10.79,10.79,0,0,1,137.06,24.33Z"/><path class="e0de5971-5a40-4125-906b-3bff4544145f" d="M31.73,137.15l5.71,2.43a54.1,54.1,0,0,0-.55,9.52,1.87,1.87,0,0,1-1.18,2l-.79-.18L30,147.51C29.89,143.94,29.88,140.4,31.73,137.15Z"/><path class="bc9ac7f6-26b8-40f5-bcdd-4ba89f8af7f7" d="M137.61,117c-2.57,1.3-5.45,1.18-8.16,1.43-3.29.31-6.59,1-9.94.63a15.3,15.3,0,0,0-1.52-6.68,6,6,0,0,1,6.17.07l7.71,1.13C133.86,114.59,136.1,115.17,137.61,117Z"/><path class="bd5dfbc9-3e3e-4b0a-80d1-a4c2780f2abe" d="M124.16,112.44c-2.09.28-4.25-.38-6.3.43a3.43,3.43,0,0,1-2.86.84c-4.47,0-8.93.11-13.4,0a24.87,24.87,0,0,1-3.86,0c-.81-.09-1.78,0-2-1.16l4.18-.1h8.78c1.19-1,2.63-.49,4-.63,1-.11,2.4.5,2.88-.45s-.71-2-1.35-2.83A52.53,52.53,0,0,0,99.22,94.93c-2.35-1.41-5-2.28-7.13-4,1.1-2.3,3.14-3.57,5.26-4.75,11,5.47,20,13,25.87,23.94A21.08,21.08,0,0,1,124.16,112.44Z"/><path class="a015c4fc-9381-4db9-b4a8-9bb3b1d6a479" d="M97.35,86.14a30,30,0,0,1-5.18,4.63,14,14,0,0,1-8.86,4.07l-3.58.67-.49-.62a16.78,16.78,0,0,1,2.58-5.14c.57-1.73,2.09-2.52,3.41-3.52,1.11-.72,2.19-1.49,3.35-2.12,1.66-.94,3.54-1.37,5.26-2.17,1.67-.43,3.28-1.63,5.09-.45C99,83.25,98,84.63,97.35,86.14Z"/><path class="b2af7ef1-5768-4e1b-b2d5-f1133b9e4213" d="M98.93,81.49c-1.85-.19-3.47.83-5.25,1-1,.24-1.55-.52-2.07-1.18a74,74,0,0,1-9.16-15.91c-.42-.94-1-2.1.34-2.93,1.79-.34,3.59-.77,5.22.51,1.39,5.1,4.44,9.31,7.29,13.64A27.65,27.65,0,0,0,99.22,81Z"/><path class="a6457c9d-705b-4d37-8bc6-94ae9b8692c5" d="M95.7,112.48c1.86.75,3.84.15,5.74.49a5.07,5.07,0,0,1,0,5.59H98.34c-3-1-6.28-1.19-9.19-2.6A14.36,14.36,0,0,1,84,112.45Z"/><path class="f10210f5-00f0-4c4e-b452-44e7367ad2f2" d="M88,63H82.33c-1.25.92-2.7.65-4.09.69-1.84,0-3.67.09-5.5-.08-1.83-.47-3.93-.17-5.33-1.87-1.76-1.2-3.92-1.86-5-3.89,7.53-.12,15.07-.47,22.46,1.45a20.05,20.05,0,0,1,7.68,3.4Z"/><path class="bdeafb4c-168a-4086-9c6a-f86822f10ca7" d="M67.41,61.77,72.52,63a3.69,3.69,0,0,1,.92,1.51A72.63,72.63,0,0,0,85.07,85.94a1.77,1.77,0,0,1,.31.7l-3.56,3.11c-2.42-2-3.93-4.67-5.47-7.27A89.44,89.44,0,0,1,67.46,63,5.32,5.32,0,0,1,67.41,61.77Z"/><path class="af070ca7-084b-4042-8f01-40b9f874b9d1" d="M83.31,94.84l8.86-4.07a50,50,0,0,1,20.67,15.07c1.24,1.51,2.35,3.13,3.51,4.71,1,1.3.47,1.85-1,1.85h-6.69c-2-3.9-5.33-6.58-8.68-9.18A46.07,46.07,0,0,0,86.14,96C85.17,95.71,84.25,95.24,83.31,94.84Z"/><path class="b81d7c14-1e17-4922-82f7-8e4f738818cb" d="M131.9,23.8l4.14,1,3.08,1.2c1.91,3.89,1.5,7.88.5,11.89-.18.71-.52,1.47-1.53,1.39h-1.56c-1.23-1-2.94-.63-4.22-1.48,1.84-2.31,1.95-5,1.4-7.67C133.27,28,132.51,25.91,131.9,23.8Z"/><path class="ed1a3c1a-ec67-4baa-bdbc-98b3ddffa460" d="M150.48,31.09a17.23,17.23,0,0,1,6.19,3.57c-1,2.39-.91,5-1.6,7.44-.29,1-.28,2.27-1.49,2.83l-5.83-2.48a33.82,33.82,0,0,0,2.07-9.74A2.09,2.09,0,0,1,150.48,31.09Z"/><path class="a180598e-c99a-4d7c-9bb5-ff46a0a2c58e" d="M138.09,39.26c2-3.12,1.7-6.6,1.33-10-.12-1.08-.26-2.17-.3-3.26l4.14,1.37,1.56,1.06c1.56,4.12.76,8.11-.73,12.05a.72.72,0,0,1-.86.36A20.09,20.09,0,0,1,138.09,39.26Z"/><path class="b8e7beda-9f5c-47b9-ac05-5ed9c4e01491" d="M143.23,40.82c2-4,1.51-8.21,1.59-12.41a14.23,14.23,0,0,1,5.66,2.68,31.57,31.57,0,0,1-1,8.71,3.33,3.33,0,0,1-1.7,2.65A16.53,16.53,0,0,1,143.23,40.82Z"/><path class="a84d98ab-bf39-4c8b-aca7-76e8b7bcd33a" d="M101.43,118.56c0-1.86,0-3.73,0-5.59l16.42-.1c2.2.68,2.78,2.85,1.65,6.18C113.48,119,107.44,119.51,101.43,118.56Z"/><path class="a4d2a388-7670-453a-8642-5dbe002cecaf" d="M118.47,35.71a18.71,18.71,0,0,0-5.68-.57l-.89,0c-.36-.22-.86-.12-1.18-.46,0-5.3,1.24-7.54,4.71-8.52a6.5,6.5,0,0,1,8.17,5.22c.4,2.61-.42,3.89-3,4.63C119.82,36.54,119.23,35.38,118.47,35.71Z"/><path class="b27d2fd6-c66e-4ac2-b09a-dcc7e4e9a9ae" d="M110.72,34.63l1.18.46c-1.49,0-2.66-.05-2.91,2.12-.27,2.43-2.88,3.87-5.41,3.59a4.86,4.86,0,0,1-4.21-4.69c0-.51,0-1,0-1.53l7.24,0Z"/><path class="a6539005-c49e-446d-9044-56ae2e508b1c" d="M89.06,34.71c.88,2.62.52,5.51,1.85,8.08.52,1-.67,1.1-1.44,1.1-2.21,0-4.42,0-6.63,0-.12-2.91-1.4-5.69-1-8.66l2.07-.32A10.34,10.34,0,0,0,89.06,34.71Z"/><path class="b51d40fc-fb16-4dee-a269-81852be90b17" d="M23.49,133l4.74,2.54c-.23,2.21-.91,4.34-1.13,6.56a2.29,2.29,0,0,1-1.54,2.18l-4.16-3.51C22.58,138.27,22.64,135.51,23.49,133Z"/><path class="a9322a17-5e2d-4a0e-84a4-ac27b899f612" d="M25.56,144.24c1.4-1.89.88-4.24,1.48-6.33a3.89,3.89,0,0,1,1.19-2.41,12,12,0,0,1,3.5,1.65c-.74,3.43-.57,7-1.69,10.36A16,16,0,0,1,25.56,144.24Z"/><path class="e38ff4f0-02c6-4545-83a9-61fd5bb7ce8e" d="M85.38,86.64c-.16,0-.4,0-.49-.12-5.67-7-10.13-14.71-12.37-23.54l5.66.06c1.5,6.54,4.93,12.12,8.57,17.63.81,1.22,2.25,2.21,1.82,4Z"/><path class="ba200ada-b8c2-43f1-8058-327fd9775a00" d="M88.57,84.68c-3.31-5.07-6.79-10.06-9.1-15.69-.77-1.86-2.56-3.61-1.29-5.95h4.15C85,70.17,88.4,76.9,93.68,82.53Z"/></svg>