<?xml version="1.0" encoding="utf-8"?>
<!-- Generator: Adobe Illustrator 26.3.1, SVG Export Plug-In . SVG Version: 6.00 Build 0)  -->
<svg version="1.1" id="b835f596-15a9-4493-9ee6-c90a66eccf90"
	 xmlns="http://www.w3.org/2000/svg" xmlns:xlink="http://www.w3.org/1999/xlink" x="0px" y="0px" viewBox="0 0 595.2 368.8"
	 style="enable-background:new 0 0 595.2 368.8;" xml:space="preserve">
<style type="text/css">
	.st0{fill:#8DE2D2;}
	.st1{fill:#BDF9ED;}
	.st2{fill:#E6FFFA;}
	.st3{fill:#E6FBF1;}
</style>
<path class="st0" d="M595.2,368.7c-2.1-0.6-4.2-0.1-6.3-0.1c-37.8,0-75.5,0-113.3,0.1c-43.1,0-86.2,0-129.3,0H190.5
	c-41.6,0-83.3,0-124.9-0.1c-18.8,0-37.6,0.1-56.4,0.1c-3.1,0-6.2-0.4-9.3-0.6v-39.6c5.3,0.1,10.6,0.2,16,0.3c2.5,0,5,0.7,7.5,0.2
	c1.6-0.3,2.2-1,2.2-2.7c-0.1-5.8-0.1-11.6-0.1-17.4c0.1-13.5-0.2-27.1-0.5-40.6c-0.1-2.3,0.6-3.1,3-3c3.9,0.1,7.7,0,11.6,0
	s3.9,0,3.9,3.9c0,19,0,38-0.1,56.9c0,2.4,0.6,3.3,3,3.1c2.7-0.2,5.4-0.1,8.1-0.1c6.5,0,6.5,0,6.4-6.6c-0.1-3.9-0.1-3.8,4-3.9
	c3.3,0,6.5,0.8,9.8,0.2c1.4-0.2,2-0.8,1.9-2.2c-0.1-2.4,0-4.8,0-7.3s-0.7-5.4,0.4-7.1s4.5-0.5,6.8-0.6c1.8-0.1,2.2-0.7,2-2.3
	c0.2-0.3,0.3-0.6,0.4-1c0-7.8,0-15.6-0.1-23.3c1.4-2.4,3.5-0.4,5.2-0.8c3.1-0.7,3.1,1,3.1,3.4c0.1,14.7-0.7,29.4-0.1,44.1
	c0.3,6.8,0.2,6.6,7,6.8c2.6,0.1,3.2-0.8,3.2-3.3c-0.1-16.8,0-33.5-0.2-50.3c0-2.1,1.1-4.2,0.5-6.3c-0.8-2.7-0.2-5.4-0.5-8.1
	c-0.1-1.6,0.6-2,2-2c1,0.1,1.9,0,2.9,0c3.8-0.1,7.5,0.9,11.2,0.5c1.3-0.1,2-0.4,1.9-1.8c-0.2-3.1,0-6.2-0.4-9.3
	c-0.8-5.9-0.2-11,6-13.8c1.1-0.5,0.8-1.5,0.8-2.3c0-3.3-0.1-6.6,0-9.9c0-0.8-0.6-2.3,0.9-2.3c1.1,0,0.7,1.4,0.7,2.2
	c0.9,18.9-0.4,37.7,1.1,56.6c1.3,16.9,0.3,33.9,0.3,50.8c0,6.4,0.1,6.4,6.1,6.5c1-0.1,1.9,0,2.9,0.1c2.6,0.5,3.2-0.6,3.2-3.2
	c-0.1-14.4,0-28.9-0.1-43.3c0-2.3,0.4-3.3,3-3.1c4.1,0.2,8.1,0,12.2,0.1c2.1,0.1,2.6-0.6,2.6-2.6c-0.1-20.4-0.1-40.9-0.1-61.3
	c0-1.8-0.6-4.1,0.3-5.4c1.1-1.5,3.6,0,5.4-0.5c1.8,0.9,3.7,0.7,5.7,0.6c1.6-0.1,2.2-0.6,1.6-2.1c-0.3-0.9-0.7-2.2,0-2.8
	c3-2.4,4.8-5.9,7.5-8.6c0,10.1,0.2,19.9-0.1,29.8c-0.1,3.6,0.3,6.4,3.2,9c3.9,3.4,5.6,7.7,5.5,13.1c-0.2,24.3-0.1,48.6-0.2,72.9
	c0,2.9,0.8,3.5,3.5,2.9c1.6-0.3,3.3-0.3,4.9-0.1c2.4,0.3,2.9-0.8,2.9-3c-0.1-16.6-0.1-33.3-0.1-50c0-3.3,0-3.3,3.2-2
	c3.9,1.5,7.7,3.1,11.6,4.6s3.9,1.3,3.9-2.7c0-14.6,0-29.2-0.1-43.9c0-2,0.4-2.8,2.5-2.7c3.1,0.1,6.2-0.1,9.3,0
	c1.9,0,2.9-0.6,2.8-2.7c-0.2-3.2,0-6.4-0.2-9.6c-0.2-1.2,0.3-2.5,1.2-3.3c8-7,8.6-8.4,8.8-18.9c0-1.4,0-2.7,0.1-4.1
	c0.2-4.4-0.4-8.9,0.8-14c0.2,1.2,0.3,1.7,0.4,2.1c0.6,7.4,0.4,14.9,0.4,22.4c0,2.2-0.3,4.4,1.7,6.1c0.9,0.8,0.7,2.1,0.6,3.3
	c-0.2,5.4-0.3,10.8-0.4,16.2c-0.2,20.8-0.1,41.6-0.1,62.5c0,1.8,0.7,2.4,2.4,2.3c2.2-0.1,4.4,0.3,6.6,0.3s2.7,0.9,2.7,3
	c-0.1,8.5-0.1,17,0,25.6c0,1-0.3,2.1,0.5,3.1h0c0.3,1.7,9.6,0.9,13.2,1.1c2.4,0.1,3.2-0.8,3.1-3.2c-0.1-8.5,0.1-17,0-25.5
	c-0.2-17.2,0.4-34.4-0.5-51.6c-0.1-1.2,0.3-1.8,1.6-1.8c2.7,0,5.4,0.1,8.1-0.2s4.2,0.5,3.7,3.6c-0.4,2.5,0.8,3.4,3.3,3.3
	c4-0.2,8.1-0.1,12.2,0.1c2,0.1,2.6-0.7,2.5-2.4c-0.1-3.2-0.4-6.4-0.4-9.5c-0.1-9.3-0.1-18.6-0.1-27.9c0-14.6,0-29.2,0.1-43.8
	c0-1.6-0.9-4,0.5-4.5s2.8,1.7,3.8,3.1c1.7,2.2,3,4.9,5,6.7s2.1,3.7,2.1,6c-0.1,5,0.1,10.1-0.1,15.1c-0.1,2.2,0.4,3.1,2.9,3
	c5-0.2,10,0,15.1-0.1c1.3,0,2,0,1.8,1.6c0,0.8,0,1.5,0,2.3c0,5.3,0,5.4,5.2,5.4c1.6,0,2,0.2,1.9,2c-0.2,8.6-0.1,17.2-0.1,25.8v26.2
	c0,8.2-0.1,16.4-0.1,24.6c0,12.9-0.1,25.8,0,38.6c0.1,9.6-1.5,8,8.3,8.4c2.4,0.1,2.9-0.7,2.9-2.9c-0.1-12.1-0.1-24.2-0.1-36.3
	c0-2.4,0-4.8,0-7.3c0-1,0-2.1,1.3-0.7c-0.4,5.1-0.4,5.1,4.8,5.1c1.2,0,2.3,0,3.5,0c1.5,0,1.8-0.5,1.8-2.1c-0.3-9.2-0.4-49.1-0.5-60
	c0-1.1,0.1-8.8,0.2-11.5c0.1-1.7-0.8-4.1,0.5-4.8c1.6-0.9,2.6,1.8,4.1,2.5c1.7,2.5,3.8,4.7,6.3,6.4c1.1,0.7,1.8,2,1.7,3.3
	c0,6,0.2,12,0.2,18c0,1.7,0.5,2.5,2.3,2.4s3.5,0.1,5.2,0s2.4,0.6,2.4,2.4c-0.2,4.1-0.3,8.1-0.4,12.2c-0.1,21.9-0.1,43.8-0.2,65.7
	c0,1.9,0.7,2.3,2.3,2.3c4.9,0,9.9,0,14.8,0.1c1.9,0,2.3-0.8,2.2-2.4c-0.1-3.1-0.1-6.2-0.1-9.3c0-7.9,0-15.9-0.1-23.8
	c0-1.3-0.3-3,1.8-2.7c2.7,0.4,5.4,0.1,8.1,0.3c2,0.2,2.5-0.7,2.5-2.5c-0.1-5.4,0.1-10.9-0.2-16.3c-0.1-2.3,0.6-2.9,2.8-2.7
	c2.9,0.2,5.8,0.3,8.7,0.4c3.7,0.1,3.7,0.1,3.7-3.7v-15.6c3.3,1.4,4.4,0.7,4.5-2.7c0.1-4.3,0-8.5,0.1-12.8c0-0.8-0.4-1.9,1.3-3
	c0,3.7-0.1,6.9,0,10c0.1,1.5-0.6,3.7,2.2,3.9c0.7,0.1,0.6,1.1,0.7,1.8c0.1,1.5,0.1,3.1,0.1,4.6c0.2,24.5,0,49-0.4,73.5
	c0,2,0.4,3,2.6,3.6c3.9,1.1,7.6,3.1,10.5,5.9c2.2,2,3,1.5,4.2-0.7c2.2-3.8,5.2-6.5,10.1-6c1.9,0.2,2.5-0.6,2.5-2.5
	c-0.1-5.4,0-10.9,0-16.3c0-11.4,0.1-22.9,0-34.3c0-2,0.6-2.8,2.7-2.7c2.3,0.1,4.6-0.1,7,0c1.8,0.1,2.7-0.4,2.6-2.4
	c-0.3-4.2,0.3-8.5-0.5-12.7c-0.3-1.1,0.2-2.2,1.2-2.7c1.1-0.7,2.2-1.5,3.4-2.2c0.8-0.5,1.4-0.6,1.3,0.8c-0.1,7.1-0.2,14.1-0.1,21.2
	s0.2,14.3,0.4,21.5c0,1-0.5,2.6,1.4,2.6c2.9,0,5.8,0.8,8.7,0.4c3.6-0.5,3.9-0.3,3.9,3.2c0,9.9,0.1,19.8,0,29.6c0,2,0.5,2.8,2.6,3.1
	c3.5,0.4,7,0,10.4,0.3c2.9,0.3,3.5-0.8,3.5-3.6c-0.2-17.6-0.1-35.2-0.1-52.9c0-3.7,0-3.7,3.7-3c2.2,0.4,3-0.3,2.8-2.5s0-4.6,0-6.9
	c6.3,1.3,8.4,4,8.5,9.9c0.1,6.8-1,5.4,5.6,5.9c5.4,0.4,5.4,0.2,5.4,5.5c0,14.8,0,29.6-0.2,44.5c0,2.5,0.7,3.5,3.3,3.3
	c2.2-0.1,4.5-0.1,6.7,0c1.5,0.1,2.2-0.4,2.1-2c0-1.8,0.1-3.7,0-5.5c0-1.3,0.3-2.1,1.8-1.9c2.2,0.3,2.2-1.2,2.2-2.7
	c0.2-8.7,0.5-17.4,0.6-26.1c0.1-2.6,0-5.2,0-7.9c0-0.5-0.2-1.3,0.6-1.4s0.9,0.6,0.9,1.1c0.2,2.6,0.5,5.2,0.4,7.8
	c-0.2,4.8,0.7,6.1,5,7.6c2.2,0.8,5.5,0,6.5,2s0.3,4.9,0.3,7.4c0,6,0,12,0,18.1l1.3,0.5c0.5-0.7,1-1.4,1.5-2.1c1.9-2.7,5.3-3.9,8.5-3
	c1.7,0.5,3.6,0.2,5-0.9L595.2,368.7z"/>
<path class="st1" d="M499.1,153.4c1.4,2.2,2.7,4.6,3.9,6.9c1.6,3.5,2.9,7.1,3.9,10.8c2.1,7.7,0.9,15.2-0.2,22.8
	c-0.3,0.9-0.7,1.8-1.1,2.6c-0.2,0.7-1.1,1.6-0.1,2.3c0.8,0.5,1.4-0.3,2-0.8c2.5-2.5,5.3-4.7,8.4-6.4c4.4-2.7,9.5-4.1,14.6-3.9
	c4.2,0.2,6.1-2.7,8.6-4.9c2.2-2,4.8-3.4,7.7-4.1c2.8-0.6,5.1-2.4,7.9-3.1c8.7-2.3,17.4-2.1,26.1-0.5c4.5,0.7,8.7,2.7,12.1,5.8
	c0.6,0.4,1.4,0.7,2.1,0.9v30.8c-71.9,0-143.7,0-215.6,0c-1.8,0-3.7,0.7-5.4,0.3c-2.3-0.6-11.1-0.3-9.4-0.2s-7.3-0.2-7.3-0.2
	s-12.2,0.8-12.2-0.6c0.2-5-0.3-4.6-1.9-4.6c-5.3,0-5.3-0.1-5.2-5.4c0-0.8,0-1.5,0-2.3c0.2-1.6-0.5-1.6-1.8-1.6
	c-5,0.1-10.1-0.1-15.1,0.1c-2.4,0.1-2.9-0.8-2.9-3c0.1-5,0-10.1,0.1-15.1c0-2.3-0.1-4.2-2.1-6s-3.3-4.5-5-6.7
	c-1-1.4-2.5-3.5-3.8-3.1s-0.5,2.9-0.5,4.5c-0.1,14.6-0.1,29.2-0.1,43.8c-19-0.1-58.4,1.1-58.3-0.4c-0.7-1.8-2.4-5.7-2.4-7.9
	c0-7.4,0.2-14.9-0.4-22.4c0-0.4-0.1-0.9-0.4-2.1c-1.1,5.2-0.6,9.6-0.8,14c-0.1,1.4,0,2.7-0.1,4.1c-0.2,10.4,0.8,7.9-4,14.4
	c-1.1,0.9-58.5,0.4-58.5,0.4c0.3-9.9,0,1.7,0-8.4c-2.8,2.6-4.5,6.1-7.5,8.6c-0.7,0.6-7.8,0.8-10.6,0.8
	c-54.7,0.1-109.4,0.1-164.1,0.1v-23.2c2.5-0.1,5,0.2,7.3,1c2.2,0.8,2.8,3.2,4.8,3.9c0.8,0.3,1.4,1.4,1.8-0.3
	c1.8-9.1,7.8-13.6,16.6-15.1c9.3-1.6,17.8-0.1,25,6.2c0.8,0.7,1.9,1,3,0.7c4.9-0.6,17.4,3.2,19,4.1c3.9,2.1,7.8,4.3,10.9,7.8
	c1.4,1.7,2.5,3.6,3.9,5.3c0.8-0.5,1-1.6,0.5-2.4c-3.4-4.1-3.8-9.5-6-14.2c-1.8-3.4-2.9-7.2-3.3-11c-0.6-5.9,0-11.7,0.3-17.6
	c0.3-3.5,1.5-6.9,3.5-9.8c1.3-2,1.4-2.7-1-3.3c-0.9-0.2-2,0-2.6-1.1c0.9-0.4,1.9-0.5,2.8-0.3c6.3,0.1,12.6,0.2,18.8,0.2
	c18.7,0,37.5,0.1,56.2,0.1c0.9,1.3,2.1,2.4,3.4,3.2c2.1,1.3,2.6,3.9,4.7,5.5c4.5,3.4,8.5,7.4,12,11.8c5.4,7,10.6,14,14.9,21.8
	c1.8,3.4,2.3,2.9,6,1.5c2.9-1.1,6.1-2,9.1-3c1.2-0.4,3.2-0.2,3.2-1.9s-0.5-4.2-1.5-4.6c-2.5-1.1-2.5-3.5-3-5.1
	c-1.9-5.5-4.8-10.9-5.4-16.8s-2.4-12-1.4-18.1c0.5-3.6,1.3-7.1,2.6-10.5c0.9-2.4,1.6-4.8,2.1-7.3c0.4-2.3,1.8-4.3,2.7-6.5
	c3.1-6.5,7-12.5,11.8-17.9c4.7-5.5,9.4-10.8,15.3-15c6.6-4.9,13.7-9.1,21.1-12.5c5.5-1.6,7-2.9,11-3.5c3.5-2,7.7-2.1,11.8-2.4
	c5.2-0.5,10.4-0.6,15.6-0.1c1.1,0.1,1.4-1.1,2.3-0.9c-0.8,3.3-0.8,3.1,2.7,3.3c6.1,0.3,12.1-1,18.2-0.4c-0.1,0.6,5.1,2.2,7.4,2.6
	c4.1,0.7,7.5,3.9,11.4,5.4c5.8,2.2,11,5.6,16.6,8.2c7.4,3.4,14.4,7.5,21.1,12.1c4.4,3,8.1,6.8,12.4,10c4.7,3.6,9,7.7,12.9,12.2
	c4.9,5.4,8.2,11.8,11.3,18.4c3.6,7.6,4.2,15.5,4,23.6c-0.2,5.6-1.9,10.8-4,16c-1.6,4-3.7,7.7-4.7,11.9c-0.3,1.3-1.5,1.6-2.2,2.6
	c-1.9,2.8-3.9,5.4-5.8,8.2c-0.6,0.8-2.2,1.8-0.8,2.8c1.2,0.9,2.9,0.8,4-0.3c3.5-3.7,7.1-7.3,10.9-10.8c3.2-2.9,6.3-6,9.5-8.9
	c2.7-2.5,6.3-4.4,8.9-7.2c1.6-1.7,3.7-2.4,5.3-3.8c5.6-4.6,11.7-8.6,18.3-11.9c2.2-1.2,10.1-5.3,11.9-5.9c3.4-1.1,4.8-1.1,7.3-1.8
	c4.7-1.2,9.8-0.9,14.3,0.8"/>
<path class="st2" d="M157.1,57.4c4-4.2,8.3-6.9,14.2-7.2c6.7-0.5,12.1,2.4,17.7,5.2c1.8,1,3.3,2.5,4.2,4.3c0.8,1.5,1.7,1.6,3.3,1.2
	c3.6-1,7.2-1.4,10.7,0.4c1.9,1,3.6,4.9,2.9,6.7c-0.4,1-1.4,1.1-2.2,1.2c-1.1,0.2-2.3,0.3-3.4,0.3c-45.7,0-91.4,0-137.1,0
	c-4.3,0-4.3,0-3.4-4.2c1.5-7,5.1-9.1,12.6-7.1c1.8,0.5,2.3,0.4,2.5-1.7c0.8-6.9,1.2-14.1,4.8-20.3c4.1-7,9.8-11.9,18.7-12
	c6.3-0.1,12,1.1,17.2,4.7c2.2,1.1,4.6,1.4,7,0.9c9.1-2.8,17.3-0.8,24.5,5.2c4.1,3.4,6.4,8.5,6.2,13.8
	C157.5,51.5,157.9,54.5,157.1,57.4z"/>
<path class="st0" d="M161.5,144.8c-18.7,0-37.5,0-56.2-0.1c-6.3,0-12.5-0.2-18.8-0.2c-1-0.2-1.9-0.1-2.8,0.3l-2.9,0.1l-2.3,0.1
	c-1.6-0.3-3.5,0.1-3.6-2.3c-0.1-2.2,1.1-3.3,3.3-3.6c1.9-0.3,3.7-0.8,5.6-1.2c2.4-0.4,4.7-0.8,7.1-1.1c7.2-0.9,14.3-1.8,21.5-2.1
	c0.9,0,2.1,0.1,2.1-1.4c0.2-4.6,2.8-8.1,5.3-11.6c8.6-8.5,19.1-10,30.5-8.7c8.2,1,14.9,4.7,20.9,10.1c2.2,1.7,3.5,4.2,3.8,6.9
	c0.1,2,1.3,2.6,2.8,3.1c4.6,1.7,9.4,3,14.2,4.3c2.4,0.7,4.6,2,6.4,3.8c0.6,0.6,1.5,1,1,2.1c-0.3,0.9-1.2,1.6-2.2,1.6
	c-1.1,0-2.1,0.1-3.2,0.1L161.5,144.8z"/>
<path class="st0" d="M323.2,65.7c-0.8-0.3-14.5,0.4-20.6,0.1c-3.5-0.2-3.5-0.1-2.7-3.3c1-3.6,2.4-7.1,4.3-10.4
	c2.9-4.5,6.9-5.4,11.5-4.4c2,0.5,2.2-0.2,2.4-1.8c0.3-2.6,0.4-5.2,1.7-7.5c2.8-5.1,8-5.5,12.8-5.9c8.3-0.6,15.5,3,22.5,7.3
	c4.4,2.7,7.6,6.5,11.2,10c0.8,0.9,2,1.3,3.1,1.3c6.6,0.4,13.4,0.6,19.1,4.8c2.3,1.7,4.5,3.4,5.1,6.4c0.6,2.8-0.6,4.4-3.3,4.3
	C368.7,65.6,324,65.7,323.2,65.7z"/>
<path class="st0" d="M525.8,129.5c6.8-5.2,21.8-0.8,24.2,8.9c1.2,4.8,1.5,4.7-3.4,4.7c-30.4-0.5-60.8-0.3-91.2-0.4
	c-3.4,0-3.9-0.6-2.2-2.8c6.1-8.1,12.5-16,20.9-21.9c2.9-2,6.1-3.6,10-2.8c2.7,0.6,5.3-0.8,8-0.1c4,1.1,7.7,3.4,10.4,6.5
	c1.1,1.3,2.9,1.9,4.5,1.6c3.8-0.4,7.7-0.2,11.5,0.8C521.6,124.9,524.5,126.2,525.8,129.5z"/>
<path class="st2" d="M460.2,28.8h-29.6c-3.1,0-3.9-1-2.1-3.6c3.4-4.9,7.3-9.7,14.3-9.2c3.2,0.2,4.9-0.6,6.3-4.1
	c2.2-5.4,6.9-9,12.7-10.6c7-1.8,14-2.5,19.9,2.9c3.3,3,6.8,6.2,4.8,11.6c-0.5,1.4,1.1,1.5,1.7,1.9c2.8,1.9,4.5,4.9,4.8,8.2
	c0.2,2.1-0.5,2.9-2.7,2.8C480.2,28.7,470.2,28.8,460.2,28.8z"/>
<path class="st1" d="M119.7,121.7c-2.5,3.5-5.1,7-5.3,11.6c0,1.5-1.2,1.3-2.1,1.4c-7.2,0.3-14.4,1.2-21.6,2.1
	c-2.4,0.3-4.7,0.7-7.1,1.1c0.2-0.5,0.3-1.4,0.7-1.5c2.7-1.2,3.1-3.9,4-6.1c1.1-2.6,2.8-4.9,5.1-6.6c1.9-1.3,4.5-3.2,7.4-3.1s6,0,9,0
	c0.6-0.1,1.2,0,1.7,0.2C114.2,122.4,116.8,123,119.7,121.7z"/>
<path class="st3" d="M78.5,145l2.3-0.1c0,0.6-0.2,1.1-1,1.2c-0.6,0.1-1.2-0.2-1.3-0.8C78.5,145.2,78.5,145.1,78.5,145z"/>
<path class="st3" d="M366.2,248.1c0.1-6.2,1.1-12.5,0.2-18.8c-0.1-0.4,0.4-0.6,0.8-0.7C367.2,239.5,366,261.3,366.2,248.1z"/>
<path class="st3" d="M86,299.6c0-7.5,0-15,0-22.5c-0.1-0.7,0-1.3,0.4-1.9c0,7.8,0.1,15.6,0.1,23.3C86.4,298.9,86.2,299.3,86,299.6z"
	/>
</svg>
