<svg id="b52d94a0-f1db-4646-a3ad-0a8639470c2a" data-name="Livello 1" xmlns="http://www.w3.org/2000/svg" viewBox="0 0 591.71 90.79"><defs><style>.e9cc1233-492c-4130-925e-3150b35fb936{fill:#fe6901;}.e0b93723-0d30-49d8-8a34-c0a45a1747af{fill:#595959;}</style></defs><path class="e9cc1233-492c-4130-925e-3150b35fb936" d="M418.27.1C435.8,4.55,449.76,20.11,452,38c2.28,18.63-4.08,33.88-19.47,44.73-11.81,8.33-25.2,10.17-39,5.65-16.89-5.55-27.06-17.57-30.74-34.73-5-23.51,9.9-47.29,33.21-53.53C396.49,0,417.64-.06,418.27.1ZM434,44.71A28.18,28.18,0,0,0,430,29.49c-6.49-11.09-20-16.12-31.56-11.7-14.31,5.49-21.66,21.69-16.52,36.42,4.95,14.16,18.61,21.62,32.51,17.76C425.9,68.78,434,57.49,434,44.71Z"/><path class="e0b93723-0d30-49d8-8a34-c0a45a1747af" d="M328.29.1c12.36,2.24,21.37,9.23,28,19.59,1.46,2.3,2.7,4.74,4.07,7.1.5.86.33,1.16-.7,1.15q-9.44,0-18.87,0c-1.08,0-1.53-.69-2.08-1.35-3.48-4.17-7.52-7.67-12.88-9.13-10.13-2.76-18.79,0-25.7,7.69-12.73,14.07-7.88,37.53,9.19,45.14,9.71,4.34,20.51,1.74,28-6.87a4.88,4.88,0,0,1,4.25-1.92c5.73.12,11.46,0,17.19.06.66,0,1.73-.3,1,1.09-4.42,8.82-10.26,16.38-19,21.45-21.31,12.4-48.14,4.82-60.15-17a46.56,46.56,0,0,1,6.65-54.65A42.75,42.75,0,0,1,307.48.25C308.07.08,327.89,0,328.29.1Z"/><path class="e0b93723-0d30-49d8-8a34-c0a45a1747af" d="M591.71,88.64c-.74,0-1.49-.1-2.23-.1-15,0-30,0-45,0-1.67,0-2.05-.44-2.05-2.07q.08-42.11,0-84.21c0-1.64.4-2.06,2.06-2.06,15,.07,30,0,45,0,.74,0,1.48-.09,2.22-.14V18Q577,18,562.2,18c-1,0-1.61.09-1.59,1.37.06,4.83,0,9.66,0,14.49,0,1.07.37,1.36,1.41,1.35,9.89-.05,19.79-.05,29.69-.07V52.94q-15,0-30-.11c-1,0-1,.57-1,1.31,0,5.14,0,10.27,0,15.41,0,.91.21,1.32,1.24,1.32,9.95-.05,19.9-.06,29.85-.08Z"/><path class="e0b93723-0d30-49d8-8a34-c0a45a1747af" d="M203,84.64l7.21-19.71q11.52-31.47,23-63A2.18,2.18,0,0,1,235.68.25c3.86.09,7.72.07,11.58,0a1.79,1.79,0,0,1,2,1.36Q265,44.31,280.79,87c.45,1.2.39,1.62-1.05,1.6-5.42-.06-10.84-.07-16.26,0A1.92,1.92,0,0,1,261.37,87c-1.8-5.08-3.71-10.12-5.5-15.2a1.87,1.87,0,0,0-2.09-1.54q-12.51.08-25,0a1.91,1.91,0,0,0-2.13,1.5c-1.82,5.13-3.75,10.23-5.56,15.36a1.77,1.77,0,0,1-2,1.41q-16.81-.06-33.63,0a2.58,2.58,0,0,1-2.42-1.3q-9.42-13.74-18.93-27.41c-.35-.51-.71-1-1.15-1.64a2.9,2.9,0,0,0-.3,2c0,8.8,0,17.6,0,26.4,0,1.53-.38,2-2,2-4.79-.1-9.59-.08-14.39,0-1.39,0-1.93-.26-1.92-1.82q.08-42.37,0-84.76c0-1,0-1.74,1.43-1.73,10.08.1,20.17,0,30.26.21,6.33.14,12.34,1.72,17.42,5.76,6.5,5.15,9.4,12.19,10.21,20.16a33.44,33.44,0,0,1-.86,12.35c-2.45,9-8.19,15-17,18-1.67.56-1.66,1-.74,2.32,5.62,8,11.17,16.11,16.75,24.17C202.15,83.61,202.49,84,203,84.64ZM162.62,30.17V40.94c0,.69-.11,1.37,1,1.37,4.92,0,9.85.16,14.57-1.6,6.33-2.38,9.09-8.07,7.05-14.53-1.5-4.73-5.62-7.69-11.59-8.08-3.1-.2-6.22,0-9.33-.15-1.28,0-1.73.3-1.7,1.64C162.68,23.12,162.62,26.65,162.62,30.17Zm78.73-.56c-2.67,7.76-5.2,15.17-7.78,22.57-.43,1.25.39,1,1,1,4.28,0,8.57,0,12.86,0,1.47,0,1.84-.29,1.31-1.77-1.6-4.48-3.07-9-4.59-13.5C243.28,35.29,242.37,32.62,241.35,29.61Z"/><path class="e0b93723-0d30-49d8-8a34-c0a45a1747af" d="M84.51,44.43c0-14.07,0-28.14,0-42.2,0-1.5.31-2,1.92-2q22.69.1,45.4,0c1.55,0,2,.4,2,2-.1,4.7-.08,9.41,0,14.12,0,1.31-.42,1.68-1.71,1.67-9.22-.05-18.43,0-27.65-.06-1.48,0-1.91.4-1.87,1.87q.15,6.6,0,13.2c0,1.64.33,2.21,2.11,2.19,9-.1,17.94,0,26.91-.09,1.87,0,2.27.56,2.22,2.3-.12,4.52-.1,9.05,0,13.57,0,1.53-.38,2-2,2-9.1-.07-18.19,0-27.28-.07-1.52,0-2,.35-2,1.94q.16,7.06,0,14.13c0,1.6.49,1.94,2,1.92,9.1-.06,18.19,0,27.28-.07,1.58,0,2,.46,2,2-.09,4.58-.11,9.17,0,13.75.05,1.72-.54,2-2.12,2q-22.6-.09-45.22,0c-1.55,0-2-.41-2-1.95C84.54,72.56,84.51,58.49,84.51,44.43Z"/><path class="e0b93723-0d30-49d8-8a34-c0a45a1747af" d="M39.87,54.92c.61-.36.64-1,.83-1.48Q50.38,27.82,60,2.18A2.44,2.44,0,0,1,62.74.24c5,.12,10,0,14.94,0,2.42,0,2.43,0,1.55,2.28L49.52,78.65c-1.06,2.71-2.16,5.41-3.13,8.15a2.19,2.19,0,0,1-2.53,1.77,75.08,75.08,0,0,0-7.65,0,2.34,2.34,0,0,1-2.72-1.78q-11-28.38-22.17-56.71C7.66,20.74,4,11.39.33,2.08-.21.71-.26.21,1.5.24,6.73.35,12,.34,17.19.25A2.45,2.45,0,0,1,20,2.14c6.37,17.1,12.84,34.17,19.28,51.25C39.47,53.9,39.67,54.4,39.87,54.92Z"/><path class="e0b93723-0d30-49d8-8a34-c0a45a1747af" d="M486.86,79.65c0-2.42.05-4.84,0-7.25,0-1.23.37-1.62,1.6-1.57a38.52,38.52,0,0,0,10.76-.91c10.3-2.54,16.53-9.68,17.73-20.25.75-6.55,0-12.86-3-18.78C509.4,22.09,501.85,18.28,492.2,18c-.19,0-.38,0-.56,0-4.78,0-4.78,0-4.78-4.88V1.76c0-.77-.09-1.47,1.08-1.49C496.81.1,505.5.9,513.52,5.13c10.4,5.47,16.37,14.41,19.65,25.31a48.7,48.7,0,0,1-3.94,38.66c-6,10.86-15.87,16.42-27.85,18.62a71.94,71.94,0,0,1-13,.84c-1.12,0-1.55-.33-1.51-1.48C486.91,84.6,486.86,82.12,486.86,79.65Z"/><path class="e9cc1233-492c-4130-925e-3150b35fb936" d="M479.62.46c.38,0,.75.09.75.6s0,1,0,1.49q0,42.36,0,84.72c0,1.6-.27,2.21-2.08,2.16-5-.14-10.08-.14-15.12,0-1.74,0-2-.52-2-2.06.05-22.11,0-44.22.08-66.33,0-1.72-.47-2.17-2.15-2.11-3.29.13-6.59,0-9.89,0-.75,0-1.47.14-1.46-1.06,0-5.57,0-11.15,0-16.72,0-.32,0-.62.41-.73Z"/></svg>